<svg fill="none" xmlns="http://www.w3.org/2000/svg" viewBox="24.17 3.97 354.2 237.87">
<path d="M174.755 145.995C141.345 137.316 119.359 148.533 108.797 179.646L50.744 157.301C37.1618 120.17 51.1797 100.658 92.7979 98.7635C134.416 96.8692 148.434 77.3568 134.852 40.2263C121.27 3.0957 169.5 3.99988 169.5 3.99988L274 3.99995L377.705 4.00003C377.705 4.00003 379.138 18.388 377.705 27.4219C376.583 34.4942 372.632 45.0426 372.632 45.0426C360.897 73.7167 338.91 84.9337 306.673 78.6934C274.77 72.6397 252.784 83.8566 240.714 112.344C227.194 141.572 205.208 152.789 174.755 145.995Z" fill="#F8F0E8"/>
<path d="M88.0608 97.0195C85.4403 101.051 72.9167 120.189 81.3058 124.008C85.8996 126.107 92.9044 121.129 96.551 118.771C103.474 114.267 110.092 109.148 116.271 103.586C120.902 99.4225 125.645 94.6842 126.72 88.142C127.193 85.2721 126.879 82.7007 125.887 80.6068C128.836 81.7195 133.621 82.814 135.138 79.5954C136.256 77.2172 133.992 75.8217 131.893 74.998C135.498 74.1226 139.731 73.1318 141.736 69.8907C143.093 67.7009 143.871 62.8179 141.088 61.2827C135.978 58.4504 129.799 65.2699 125.573 68.5132C124.841 64.8146 122.62 60.6787 118.436 63.1247C114.624 65.3457 114.916 70.3962 116.307 74.1303C104.812 72.5472 93.4911 88.6607 88.0608 97.0195ZM81.4049 120.975C80.017 117.332 82.6148 112.064 84.1437 108.835C86.6409 103.583 89.6938 98.5645 93.169 93.9304C97.9559 87.5377 107.178 75.2874 116.319 76.3259C116.385 76.4792 116.506 76.6136 116.711 76.6739C121.006 77.9508 124.963 80.5526 124.464 85.8326C124.137 89.3644 122.843 92.8276 120.653 95.6211C119.855 96.6275 119.005 97.5844 118.113 98.5155C118.234 96.4437 118.14 94.448 117.463 92.4109C117.197 91.5918 115.955 92.2008 116.276 93.0238C117.1 95.1514 117.169 97.3282 117.078 99.5736C115.975 100.661 114.842 101.701 113.679 102.704C113.299 97.7847 111.532 93.2238 108.818 89.1672C108.423 88.579 107.602 89.3208 107.997 89.9089C110.637 93.9146 112.42 98.4195 113.061 103.243C112.017 104.141 110.963 105.026 109.91 105.9C109.898 105.911 109.863 105.942 109.84 105.952C109.556 103.143 108.321 100.632 106.192 98.6513C105.689 98.1811 104.872 98.8547 105.372 99.3817C107.312 101.509 108.61 103.921 108.87 106.752C106.871 108.393 102.764 111.679 98.3047 114.803C98.4659 111.545 97.1651 108.195 94.2716 106.663C93.5821 106.305 92.9363 107.197 93.5682 107.722C95.7149 109.475 97.0254 112.289 96.9738 115.143C96.9694 115.337 97.0454 115.491 97.1462 115.612C90.1559 120.408 82.7185 124.44 81.4049 120.975ZM119.365 74.8506C117.891 72.2881 115.757 67.3353 118.815 64.8778C122.38 62.0219 123.769 67.7219 124.029 70.2781C124.084 70.8307 124.826 71.2264 125.292 70.9166C128.871 68.5761 131.818 65.2991 135.762 63.499C136.782 63.0456 138.945 61.9648 140.008 62.9091C142.05 64.7232 141.009 68.6273 139.093 70.0572C136.295 72.1674 132.71 73.4786 129.377 74.2705C128.768 74.4216 128.65 75.3505 129.273 75.5663C130.43 75.8772 131.519 76.3546 132.551 76.9881C132.939 78.7647 132.35 79.5001 130.807 79.1846C128.815 79.226 127.011 78.8463 125.13 78.1868C124.797 78.0716 124.527 78.1325 124.316 78.2889C123.104 77.0025 121.499 76.0768 119.527 75.5936C119.556 75.3671 119.51 75.1124 119.365 74.8506Z" fill="#1D1D1B"/>
<path d="M84.1436 108.835C82.6148 112.065 80.0169 117.333 81.4048 120.975C82.7185 124.44 90.1559 120.408 97.1461 115.612C97.0454 115.491 96.9693 115.337 96.9738 115.143C97.0254 112.289 95.7148 109.475 93.5681 107.722C92.9362 107.197 93.582 106.305 94.2715 106.663C97.1651 108.195 98.4658 111.545 98.3046 114.803C102.764 111.679 106.871 108.393 108.87 106.752C108.61 103.921 107.312 101.509 105.372 99.3817C104.872 98.8547 105.689 98.1811 106.192 98.6513C108.321 100.632 109.556 103.143 109.84 105.952C109.862 105.942 109.898 105.911 109.91 105.9C110.963 105.026 112.017 104.141 113.061 103.243C112.42 98.4196 110.637 93.9147 107.996 89.909C107.602 89.3208 108.423 88.579 108.818 89.1672C111.532 93.2238 113.299 97.7848 113.679 102.704C114.842 101.701 115.975 100.661 117.078 99.5737C117.169 97.3283 117.1 95.1514 116.276 93.0238C115.955 92.2008 117.197 91.5918 117.463 92.4109C118.14 94.448 118.234 96.4438 118.113 98.5156C119.005 97.5845 119.855 96.6275 120.653 95.6212C122.843 92.8276 124.137 89.3645 124.464 85.8326C124.963 80.5526 121.006 77.9509 116.711 76.6739C116.506 76.6136 116.385 76.4792 116.319 76.326C107.178 75.2875 97.9559 87.5378 93.1689 93.9305C89.6938 98.5646 86.6408 103.583 84.1436 108.835ZM95.9412 99.7402C95.0592 99.026 96.0855 97.5214 96.9446 98.2455C100.522 101.312 103.505 105.456 103.624 110.46C103.642 111.193 102.489 111.248 102.391 110.544C101.735 106.039 99.3654 102.51 95.9412 99.7402Z" fill="#EC7724"/>
<path d="M96.9447 98.2455C96.0857 97.5214 95.0594 99.026 95.9413 99.7402C99.3655 102.51 101.735 106.039 102.391 110.544C102.489 111.248 103.642 111.193 103.624 110.46C103.505 105.456 100.522 101.312 96.9447 98.2455Z" fill="#1D1D1B"/>
<path d="M118.815 64.8779C115.757 67.3354 117.891 72.2882 119.365 74.8506C119.51 75.1124 119.556 75.3672 119.527 75.5937C121.499 76.0768 123.104 77.0026 124.316 78.289C124.527 78.1325 124.797 78.0717 125.13 78.1868C127.011 78.8463 128.815 79.226 130.806 79.1847C132.35 79.5002 132.939 78.7647 132.551 76.9882C131.519 76.3547 130.43 75.8772 129.273 75.5664C128.65 75.3506 128.768 74.4216 129.377 74.2706C132.71 73.4787 136.295 72.1675 139.093 70.0573C141.009 68.6273 142.05 64.7233 140.008 62.9092C138.945 61.9649 136.782 63.0457 135.762 63.499C131.818 65.2991 128.871 68.5762 125.292 70.9167C124.825 71.2264 124.084 70.8308 124.029 70.2782C123.769 67.722 122.38 62.022 118.815 64.8779Z" fill="#99B815"/>
<path d="M194.493 150.317C188.509 170.053 166.823 167.892 155.403 158.591C149.072 153.444 144.695 146.605 144.92 137.496C145.114 129.139 149.105 120.434 154.287 113.731C154.36 113.631 154.471 113.568 154.568 113.535C156.243 111.786 158.39 110.467 161.087 109.814C167.204 108.337 173.341 109.701 176.598 115.049C179.58 119.948 179.165 126.523 182.525 131.169C182.758 131.013 183.02 130.913 183.33 130.901C190.015 130.676 197.179 134.86 196.917 142.729C196.826 145.436 195.934 147.972 194.507 150.183C194.5 150.227 194.501 150.273 194.493 150.317ZM191.889 148.888C197.266 140.535 190.609 133.729 182.871 133.91C182.099 133.924 181.742 133.422 181.714 132.81C181.659 132.79 181.6 132.78 181.554 132.74C175.405 127.834 178.032 115.084 169.553 112.666C157.249 109.153 150.587 121.412 152.593 132.77C154.483 143.426 163.792 151.147 173.415 153.815C179.246 155.436 187.651 155.467 191.889 148.888ZM189.651 155.076C187.873 156.266 185.892 157.115 183.847 157.513C171.441 159.951 155.689 151.297 151.321 139.386C150.005 135.799 149.289 130.955 149.662 126.214C148.399 129.491 147.474 132.837 147.276 136.278C146.817 144.34 150.287 151.062 156.003 155.622C165.5 163.193 181.277 166.861 189.651 155.076Z" fill="#1D1D1B"/>
<path d="M182.871 133.91C190.609 133.729 197.266 140.535 191.889 148.888C187.651 155.467 179.246 155.436 173.415 153.815C163.792 151.147 154.483 143.426 152.593 132.77C150.587 121.412 157.249 109.153 169.553 112.666C178.032 115.084 175.405 127.834 181.554 132.74C181.6 132.78 181.659 132.79 181.714 132.81C181.742 133.422 182.099 133.924 182.871 133.91ZM162.649 134.05C165.937 135.929 170.364 133.698 171.324 129.487C172.005 126.526 171.119 123.746 169.647 121.465C168.826 120.213 167.447 118.764 165.876 118.204C166.027 117.867 165.947 117.456 165.525 117.485C161.562 117.726 158.207 120.181 157.932 124.634C157.689 128.383 159.667 132.343 162.649 134.05Z" fill="#FF4121"/>
<path d="M183.847 157.513C185.892 157.115 187.873 156.266 189.651 155.076C181.277 166.861 165.5 163.193 156.003 155.622C150.287 151.062 146.817 144.34 147.276 136.278C147.474 132.837 148.399 129.491 149.662 126.214C149.289 130.955 150.005 135.799 151.321 139.386C155.689 151.297 171.441 159.951 183.847 157.513Z" fill="#F6F6F6"/>
<path d="M171.324 129.487C170.364 133.698 165.937 135.929 162.649 134.05C159.667 132.342 157.689 128.383 157.932 124.634C158.207 120.18 161.562 117.725 165.525 117.485C165.947 117.456 166.027 117.867 165.876 118.204C167.447 118.764 168.826 120.213 169.647 121.465C171.119 123.746 172.005 126.526 171.324 129.487ZM163.166 131.479C165.122 132.979 168.096 132.568 169.039 129.507C170.443 124.987 166.989 121.069 163.643 119.503C163.602 119.477 163.561 119.45 163.524 119.413C161.558 120.499 160.005 122.258 160.106 124.782C160.195 127.358 161.243 130.002 163.166 131.479Z" fill="#1D1D1B"/>
<path d="M169.039 129.507C168.096 132.568 165.122 132.979 163.167 131.479C161.243 130.002 160.195 127.358 160.106 124.782C160.005 122.258 161.559 120.499 163.524 119.413C163.561 119.45 163.602 119.477 163.643 119.504C166.989 121.069 170.443 124.987 169.039 129.507ZM165.645 129.438C166.414 128.151 167.032 126.796 166.593 125.385C166.259 124.324 165.178 123.218 164.342 122.607C163.795 122.207 162.8 122.879 163.06 123.589C162.501 124.653 161.887 125.72 161.866 126.926C161.839 128.523 163.513 129.318 164.672 129.783C164.981 129.897 165.454 129.772 165.645 129.438Z" fill="#F6F6F6"/>
<path d="M166.593 125.385C167.032 126.797 166.414 128.151 165.645 129.439C165.454 129.772 164.981 129.897 164.672 129.783C163.513 129.318 161.839 128.524 161.866 126.926C161.887 125.72 162.501 124.653 163.06 123.589C162.8 122.879 163.795 122.208 164.341 122.607C165.178 123.218 166.259 124.324 166.593 125.385ZM164.708 127.888C165.037 127.201 165.247 126.446 164.819 125.837C164.546 125.435 164.208 125.089 163.882 124.738C163.654 125.335 163.443 125.939 163.413 126.54C163.376 127.232 164.071 127.629 164.708 127.888Z" fill="#1D1D1B"/>
<path d="M232.193 69.1796C230.175 71.3705 224.914 76.2288 221.172 76.5275C220.923 77.7427 220.247 78.9679 219.066 80.1346C209.635 89.4418 199.429 84.2027 191.131 80.0196C190.882 79.9039 190.752 79.7213 190.715 79.5174C189.914 80.1761 188.948 80.749 188.287 81.302C187.93 81.611 187.451 81.6543 187.087 81.4772C185.467 80.6832 184.677 79.0954 183.531 77.8488C183.168 77.4477 183.328 76.9001 183.749 76.4807C184.294 75.924 184.899 75.2956 185.585 74.8444C185.23 74.3919 184.882 73.933 184.562 73.4733C183.955 72.8732 183.496 72.1608 183.259 71.3409C179.716 64.8262 180.125 57.6368 185.259 49.6843C186.728 47.4039 188.914 43.1486 191.962 42.2326C193.251 41.8377 194.116 42.1887 194.725 42.8656C196.046 39.0976 199.273 35.0675 202.699 32.7733C206.477 30.2406 208.27 32.1312 207.651 35.4796C211.909 30.9455 216.979 34.7177 215.94 39.5029C219.44 39.4851 221.454 40.9226 219.675 44.4133C219.718 44.3995 219.75 44.3731 219.799 44.3656C224.303 43.3964 227.909 45.3599 226.172 49.4639C229.36 49.7861 231.152 51.2865 229.589 54.3946C231.924 55.575 232.563 57.2558 230.864 59.6056C235.885 60.7553 235.827 65.2232 232.193 69.1796ZM224.489 72.9368C226.238 71.9105 227.923 70.7257 229.371 69.3352C232.729 66.1019 234.341 62.5831 229.82 60.8139C229.795 60.8017 229.783 60.7891 229.771 60.7766C229.195 61.0461 228.487 60.7426 228.805 60.0633C229.92 57.6312 230.566 56.6882 227.836 55.581C227.392 55.393 227.437 54.8288 227.682 54.4455C228.138 51.792 227.152 50.6696 224.724 51.0784C224 51.0569 223.774 50.4286 224.133 49.8379C226.621 45.6652 222.637 45.2591 219.776 45.5372C219.442 45.5706 219.275 45.3633 219.251 45.1143C218.718 45.6387 217.702 45.1569 218.033 44.4325C219.513 41.1919 217.179 40.9841 214.656 41.2031C214.044 41.2557 213.756 40.6802 213.949 40.1829C215.422 36.3218 211.809 33.1107 208.032 36.5713C207.76 36.8209 207.426 36.7647 207.249 36.5768C206.881 36.8734 206.299 36.7782 206.341 36.2397C206.401 35.272 206.896 32.1953 204.903 33.3361C203.533 34.1232 202.303 35.2526 201.264 36.3904C199.104 38.7445 196.803 41.3964 195.506 44.2039C195.623 44.5083 195.72 44.8196 195.808 45.1375C198.693 42.792 201.05 43.1592 201.674 46.4082C205.878 44.8957 208.826 46.369 208.698 50.3587C213.371 49.8975 213.954 52.5203 212.686 55.7175C216.169 53.9915 219.723 55.0027 217.576 58.8348C220.986 59.9773 220.862 62.655 218.375 65.484C219.464 65.9833 220.287 66.6487 220.601 67.9084C221.022 69.6263 218.862 70.3359 219.983 71.8263C220.558 72.5872 220.947 73.4036 221.145 74.2564C222.252 73.8338 223.442 73.5436 224.489 72.9368ZM210.915 82.7888C216.452 80.8548 221.921 76.2476 216.862 72.0528C216.552 71.7977 216.57 71.1894 216.871 70.8368C218.497 68.9622 218.29 67.636 216.216 66.8974C215.501 66.6454 215.321 65.8561 215.99 65.2517C218.277 63.1826 218.769 61.0146 215.694 60.3633C215.083 60.2368 214.889 59.5375 215.285 59.0163C215.307 56.3346 214.297 55.7247 212.24 57.1869C212.118 57.2666 211.991 57.3399 211.869 57.4196C210.417 60.0323 208.048 62.7177 205.864 64.2534C206.55 64.5637 207.143 65.0298 207.583 65.6914C208.938 67.7587 207.709 70.0399 205.554 71.4277C206.999 71.8866 208.422 72.7556 207.828 74.3821C207.278 75.9051 205.732 76.594 204.188 76.9564C204.808 78.0938 205.282 79.5097 204.266 80.6725C203.28 81.8218 201.449 81.7302 200.232 81.6179C199.711 81.5724 199.194 81.5013 198.693 81.4171C202.425 83.1408 206.5 84.3318 210.915 82.7888ZM202.45 79.9983C203.839 79.6202 202.099 77.338 201.775 76.8145C201.392 76.2283 202.167 75.5575 202.799 75.4659C203.218 75.4177 207.112 74.802 205.821 73.4755C205.224 72.856 204.589 72.57 203.748 72.289C203.126 72.4059 202.838 71.6063 203.354 71.1975C204.916 69.958 207.685 68.0119 205.596 66.3906C203.869 65.0487 201.45 65.3036 199.233 66.3409C198.303 66.7722 197.503 65.7287 198.361 65.0559C198.556 64.9042 203.426 60.4069 200.031 60.7614C198.554 60.9112 197.541 61.5683 196.321 62.3647C195.664 62.8024 195.063 62.119 195.28 61.5572C196.658 59.2853 195.727 58.5647 192.503 59.3696C192.281 59.7012 192.066 60.0261 191.85 60.364C191.519 60.8644 190.781 60.7985 190.569 60.3939C189.117 57.5802 187.955 59.9174 188.651 61.8529C188.774 62.2084 188.675 62.537 188.355 62.8389C184.947 66.0797 183.878 71.2816 187.63 73.5488C188.276 73.9368 187.808 74.7541 187.157 74.8845C187.223 75.0301 187.231 75.2027 187.125 75.4035C187.077 75.4878 187.03 75.5721 186.983 75.6564C186.731 76.1359 186.223 76.6276 185.739 77.0997C186.375 77.9551 186.96 78.8757 187.816 79.5468C188.277 79.2289 188.737 78.9109 189.192 78.5868C189.786 78.1569 190.208 77.648 190.759 77.1871C191.302 76.7329 192.102 77.015 192.048 77.6305C192.811 77.4847 193.582 77.9594 194.207 78.1752C195.482 78.6189 196.766 79.0561 198.099 79.396C199.334 79.7063 201.034 80.3769 202.45 79.9983ZM204.194 63.2558C208.007 61.1638 216.121 51.0555 207.538 52.2351C207.021 52.2984 206.671 51.8075 206.731 51.3773C206.454 47.346 204.626 46.3008 201.24 48.2485C200.716 48.4847 200.085 48.3075 200.037 47.7775C199.858 45.5996 197.502 45.533 195.768 47.1286C195.257 47.6013 194.537 47.3301 194.439 46.8077C192.936 38.588 186.099 51.2196 184.747 54.4316C182.827 59.0134 182.744 63.066 183.67 66.935C183.933 66.1674 184.262 65.411 184.744 64.6831C185.459 63.6041 186.819 62.6572 186.582 61.4789C186.359 60.4347 185.959 57.1549 188.154 56.7964C189.863 56.5197 190.765 57.5225 191.43 58.678C194.342 55.18 197.696 56.471 197.2 60.2197C199.097 59.2155 201.29 58.6011 202.502 60.2174C203.315 61.3054 202.741 62.669 201.792 63.8878C202.433 63.7769 203.084 63.7361 203.703 63.7664C203.794 63.5787 203.946 63.396 204.194 63.2558Z" fill="#1D1D1B"/>
<path d="M229.371 69.3351C227.923 70.7256 226.238 71.9104 224.489 72.9368C223.442 73.5436 222.252 73.8338 221.145 74.2564C220.947 73.4035 220.558 72.5871 219.983 71.8263C218.862 70.3359 221.022 69.6263 220.601 67.9084C220.287 66.6487 219.464 65.9832 218.375 65.4839C220.861 62.655 220.986 59.9773 217.576 58.8347C219.723 55.0027 216.169 53.9915 212.686 55.7175C213.954 52.5203 213.371 49.8975 208.698 50.3586C208.826 46.369 205.878 44.8957 201.674 46.4082C201.05 43.1592 198.693 42.792 195.808 45.1375C195.72 44.8196 195.623 44.5083 195.506 44.2039C196.803 41.3964 199.104 38.7445 201.264 36.3904C202.303 35.2526 203.533 34.1232 204.903 33.3361C206.896 32.1953 206.401 35.272 206.341 36.2397C206.299 36.7782 206.881 36.8734 207.249 36.5768C207.426 36.7647 207.76 36.8208 208.032 36.5713C211.809 33.1107 215.422 36.3218 213.949 40.1829C213.756 40.6801 214.044 41.2557 214.656 41.203C217.179 40.9841 219.513 41.1919 218.033 44.4325C217.702 45.1569 218.718 45.6387 219.251 45.1143C219.275 45.3633 219.441 45.5706 219.776 45.5372C222.637 45.2591 226.621 45.6651 224.133 49.8379C223.774 50.4286 224 51.0568 224.724 51.0783C227.152 50.6696 228.138 51.792 227.682 54.4455C227.437 54.8288 227.391 55.393 227.836 55.5809C230.566 56.6882 229.92 57.6311 228.804 60.0633C228.487 60.7426 229.195 61.046 229.771 60.7766C229.783 60.7891 229.795 60.8016 229.82 60.8138C234.341 62.5831 232.729 66.1019 229.371 69.3351Z" fill="#99B815"/>
<path d="M216.862 72.0527C221.921 76.2475 216.452 80.8547 210.914 82.7887C206.5 84.3317 202.425 83.1407 198.693 81.417C199.194 81.5013 199.711 81.5724 200.232 81.6178C201.449 81.7301 203.28 81.8217 204.266 80.6724C205.282 79.5096 204.808 78.0937 204.187 76.9563C205.731 76.5939 207.278 75.9051 207.828 74.382C208.421 72.7556 206.999 71.8865 205.554 71.4276C207.708 70.0398 208.938 67.7586 207.583 65.6913C207.143 65.0297 206.55 64.5636 205.864 64.2533C208.048 62.7177 210.417 60.0323 211.869 57.4195C211.991 57.3398 212.118 57.2665 212.24 57.1868C214.297 55.7246 215.307 56.3345 215.285 59.0162C214.889 59.5374 215.083 60.2368 215.694 60.3632C218.769 61.0145 218.277 63.1825 215.99 65.2516C215.321 65.856 215.501 66.6453 216.216 66.8973C218.29 67.636 218.497 68.9621 216.871 70.8367C216.57 71.1893 216.552 71.7976 216.862 72.0527Z" fill="#99B815"/>
<path d="M201.775 76.8144C202.099 77.3379 203.839 79.6201 202.45 79.9981C201.034 80.3768 199.334 79.7062 198.099 79.3959C196.766 79.0559 195.483 78.6188 194.207 78.1751C193.582 77.9593 192.811 77.4846 192.048 77.6304C192.102 77.0148 191.302 76.7328 190.759 77.187C190.208 77.6478 189.786 78.1568 189.192 78.5866C188.737 78.9108 188.277 79.2287 187.817 79.5467C186.96 78.8756 186.375 77.955 185.739 77.0996C186.223 76.6275 186.731 76.1357 186.983 75.6563C187.03 75.572 187.077 75.4877 187.125 75.4034C187.231 75.2026 187.223 75.03 187.157 74.8843C187.808 74.7539 188.276 73.9367 187.63 73.5487C183.878 71.2815 184.948 66.0796 188.355 62.8388C188.676 62.5369 188.774 62.2083 188.651 61.8528C187.955 59.9173 189.117 57.5801 190.569 60.3937C190.781 60.7983 191.519 60.8643 191.85 60.3638C192.066 60.026 192.281 59.701 192.503 59.3695C195.727 58.5646 196.659 59.2851 195.28 61.5571C195.063 62.1189 195.664 62.8023 196.321 62.3646C197.541 61.5682 198.554 60.911 200.031 60.7613C203.426 60.4068 198.556 64.904 198.361 65.0558C197.503 65.7285 198.303 66.7721 199.233 66.3408C201.45 65.3035 203.869 65.0486 205.596 66.3904C207.685 68.0118 204.916 69.9579 203.354 71.1974C202.838 71.6062 203.126 72.4057 203.748 72.2888C204.589 72.5699 205.224 72.8558 205.821 73.4754C207.112 74.8018 203.218 75.4176 202.799 75.4658C202.168 75.5573 201.392 76.2282 201.775 76.8144Z" fill="#99B815"/>
<path d="M207.538 52.2352C216.121 51.0555 208.007 61.1638 204.194 63.2558C203.946 63.396 203.794 63.5787 203.703 63.7664C203.084 63.7361 202.433 63.7769 201.792 63.8879C202.741 62.6691 203.315 61.3054 202.502 60.2174C201.29 58.6011 199.097 59.2155 197.2 60.2197C197.696 56.4711 194.342 55.1801 191.43 58.678C190.765 57.5226 189.863 56.5198 188.154 56.7965C185.959 57.1549 186.359 60.4347 186.582 61.479C186.819 62.6573 185.459 63.6041 184.744 64.6831C184.262 65.4111 183.933 66.1675 183.67 66.9351C182.744 63.0661 182.827 59.0135 184.747 54.4316C186.099 51.2197 192.936 38.588 194.439 46.8077C194.537 47.3302 195.257 47.6013 195.768 47.1286C197.502 45.5331 199.858 45.5996 200.037 47.7776C200.085 48.3076 200.716 48.4848 201.24 48.2486C204.626 46.3009 206.454 47.346 206.731 51.3774C206.671 51.8075 207.021 52.2985 207.538 52.2352Z" fill="#99B815"/>
<path d="M299.249 74.9922C305.524 82.3783 306.658 97.6407 295.456 106.08C285.765 113.387 274.19 110.763 266.288 106.42C258.394 102.081 250.06 93.0812 252.407 81.0907C254.95 68.1227 266.945 57.9187 277.911 59.9208C277.9 59.4049 277.904 58.8824 277.926 58.3689C277.955 57.6042 278.858 56.9575 279.408 57.2653C282.717 59.1319 286.129 59.888 288.614 62.7391C289.674 59.7765 291.351 56.9436 292.964 54.205C293.243 53.7373 293.878 53.3799 294.259 53.6447C295.701 54.6328 297.687 54.6501 298.746 56.2089C298.945 56.4946 299.01 56.9954 298.64 57.3457C296.1 59.7829 293.907 62.5662 292.051 65.592C292.82 70.1933 293.611 74.0828 299.22 73.3189C299.859 73.2326 300.161 74.0524 299.626 74.631C299.502 74.7668 299.374 74.8718 299.249 74.9922ZM290.54 105.891C302.845 99.8845 303.378 84.7607 297.066 77.1429C296.954 77.0011 296.884 76.8662 296.85 76.7072C292.567 78.7826 287.746 76.6439 286.424 72.3145C286.154 71.4398 286.105 68.75 285.207 68.8323C283.668 68.9855 282.399 68.3688 281.21 67.6932C279.33 66.6383 278.458 64.5935 278.103 62.3007C278.094 62.2962 278.094 62.2962 278.086 62.2918C267.39 60.8094 253.338 72.2083 254.708 85.2942C255.622 94.0233 261.119 100.291 267.859 103.675C273.986 106.761 282.704 109.718 290.54 105.891ZM296.398 75.0598C292.391 74.7098 290.441 71.677 290.678 66.7228C290.343 66.595 290.144 66.2101 290.433 65.7049C292.296 62.5271 294.524 59.6051 297.08 57.0204C296.254 56.4022 295.075 56.044 294.046 55.7618C292.48 58.6373 290.989 61.5222 289.508 64.4269C289.112 65.218 288.224 65.0072 288.166 64.3543C285.727 62.2354 282.49 61.5112 279.664 59.9895C279.691 64.5397 282.176 67.49 286.852 66.989C287.263 66.9432 287.608 67.232 287.558 67.7167C286.971 73.2021 291.659 77.0594 296.398 75.0598Z" fill="#1D1D1B"/>
<path d="M297.066 77.143C303.378 84.7608 302.845 99.8846 290.54 105.892C282.704 109.718 273.985 106.761 267.859 103.675C261.119 100.291 255.622 94.0234 254.708 85.2943C253.338 72.2084 267.389 60.8095 278.086 62.2918C278.094 62.2963 278.094 62.2963 278.103 62.3008C278.458 64.5936 279.33 66.6384 281.21 67.6933C282.399 68.3689 283.668 68.9856 285.207 68.8324C286.105 68.7501 286.154 71.4399 286.424 72.3146C287.746 76.644 292.567 78.7827 296.85 76.7073C296.884 76.8663 296.954 77.0012 297.066 77.143Z" fill="#FF4121"/>
<path d="M290.678 66.7227C290.441 71.6769 292.391 74.7097 296.398 75.0597C291.659 77.0593 286.971 73.202 287.558 67.7166C287.608 67.2319 287.263 66.9431 286.852 66.9889C282.176 67.4899 279.691 64.5396 279.664 59.9894C282.49 61.5111 285.727 62.2353 288.166 64.3542C288.224 65.0071 289.112 65.2179 289.508 64.4268C290.989 61.5221 292.48 58.6372 294.046 55.7617C295.075 56.0439 296.254 56.4021 297.08 57.0203C294.523 59.605 292.296 62.527 290.433 65.7048C290.144 66.21 290.343 66.5949 290.678 66.7227Z" fill="#99B815"/>
<path d="M115.929 188.579C122.516 188.601 128.23 193.528 124.519 201.3C120.779 209.149 110.911 211.886 104.411 208.589C103.255 208.018 102.971 206.797 103.251 205.727C76.7165 226.441 31.1909 202.015 33.4249 173.429C27.6226 173.785 22.5558 167.439 24.658 161.165C27.337 153.101 35.6313 152.221 41.197 155.628C41.2581 155.67 41.2776 155.72 41.3386 155.763C41.6551 155.397 41.9545 155.025 42.2882 154.664C42.4083 154.555 42.5137 154.483 42.6191 154.411C38.1211 153.705 36.1188 153.015 35.1666 148.065C34.879 146.605 36.3212 145.136 37.6424 145.18C69.0465 146.534 99.2507 160.543 126.857 173.247C127.761 173.666 128.403 174.514 128.221 175.682C127.3 182.364 124.167 182.991 118.459 183.704C118.209 183.748 117.982 183.734 117.769 183.682C117.222 185.395 116.604 187.04 115.929 188.579ZM120.808 199.914C124.039 194.331 118.956 191.932 114.675 191.516C114.64 191.504 114.623 191.499 114.589 191.487C112.061 196.557 108.969 200.632 105.484 203.817C105.719 203.812 105.971 203.812 106.228 203.901C111.091 205.316 117.408 205.785 120.808 199.914ZM118.051 179.2C122.976 178.455 124.148 177.584 119.21 175.409C115.632 173.831 112.039 172.291 108.446 170.751C100.485 167.319 92.4771 163.956 84.3142 160.994C70.2134 155.835 55.6836 150.983 40.3614 150.026C41.0002 150.981 41.9726 151.575 43.3447 151.788C44.3249 152.212 44.1887 153.915 43.2701 154.333C43.8936 154.526 44.2707 155.455 43.8578 156.22C32.0348 177.616 43.0988 197.216 61.6595 204.731C70.4497 208.277 80.7129 209.824 90.4547 206.31C102.513 201.973 109.124 192.024 114.115 180.048C115.008 177.893 117.103 177.945 118.051 179.2ZM39.174 158.495C35.5019 157.209 29.994 157.256 28.5769 162.514C28.1129 164.212 28.4512 165.992 29.5201 167.137C30.7867 168.524 32.4622 168.756 34.1203 169.132C35.0072 165.593 36.6233 162.023 39.174 158.495Z" fill="black"/>
<path d="M114.675 191.516C118.955 191.932 124.039 194.331 120.808 199.914C117.408 205.785 111.091 205.316 106.228 203.901C105.971 203.812 105.719 203.812 105.484 203.817C108.969 200.632 112.061 196.557 114.589 191.487C114.623 191.499 114.64 191.504 114.675 191.516Z" fill="#B2B2B2"/>
<path d="M119.21 175.409C124.148 177.585 122.976 178.455 118.051 179.2C117.103 177.945 115.008 177.893 114.115 180.048C109.124 192.024 102.513 201.974 90.4548 206.31C80.7129 209.824 70.4498 208.277 61.6595 204.731C43.0988 197.216 32.0349 177.616 43.8578 156.22C44.2707 155.455 43.8937 154.526 43.2702 154.333C44.1887 153.915 44.3249 152.212 43.3448 151.788C41.9726 151.575 41.0003 150.981 40.3615 150.026C55.6836 150.983 70.2134 155.835 84.3143 160.994C92.4771 163.956 100.485 167.319 108.446 170.751C112.039 172.291 115.632 173.831 119.21 175.409Z" fill="#B2B2B2"/>
<path d="M98.4084 220.668C102.569 226.556 103.834 232.927 101.533 240.166C100.595 243.163 96.3758 241.76 97.3154 238.722C98.6456 234.357 98.788 230.626 97.1625 226.883C94.6102 232.37 91.2303 236.431 85.572 238.842C84.6473 239.241 83.384 238.31 83.237 237.25C82.9888 235.396 82.4283 233.613 81.8308 231.85C79.4343 234.844 76.4457 237.009 73.9547 240.102C73.347 240.835 71.9798 240.835 71.4416 240.028C69.1167 236.488 66.7076 233.839 65.2285 230.08C62.3174 232.653 58.887 234.399 56.6017 237.884C55.9104 238.939 54.6362 238.881 53.9975 237.807C52.6183 235.432 50.7325 233.488 48.8831 231.546C47.5968 234.045 45.578 236.096 44.3066 238.698C43.9147 239.518 42.7937 239.79 42.1361 239.283C37.5504 235.757 33.77 231.586 30.598 226.661C29.5983 230.955 30.2559 234.75 32.6084 238.007C33.262 239.183 31.6911 240.375 30.8662 239.417C26.0735 233.896 25.5468 228.359 28.7089 221.53C29.318 220.208 31.021 220.523 31.6044 221.616C33.8713 225.804 36.5253 229.861 39.9219 232.965C43.1411 235.923 45.485 232.318 47.0398 228.324C47.4782 227.201 48.6404 226.788 49.4673 227.686C51.49 229.897 53.6098 231.929 55.3884 234.356C58.2516 231.031 62.0133 229.193 64.863 225.725C65.7183 224.675 67.1697 225.428 67.4773 226.594C68.5651 230.605 70.7316 232.882 72.8629 235.665C75.6242 232.661 78.7808 230.379 80.7544 226.398C81.634 224.618 83.7026 225.45 84.1977 227.008C84.9423 229.283 85.8379 231.4 86.4739 233.652C90.7549 230.997 93.0603 226.904 94.9881 221.562C95.5102 220.116 97.3806 219.237 98.4084 220.668Z" fill="#EC7724"/>
<path d="M28.577 162.514C29.9941 157.256 35.502 157.209 39.174 158.495C36.6233 162.023 35.0072 165.593 34.1203 169.132C32.4623 168.756 30.7867 168.524 29.5201 167.137C28.4512 165.992 28.1129 164.212 28.577 162.514Z" fill="#B2B2B2"/>
</svg>