<svg xmlns="http://www.w3.org/2000/svg" xmlns:xlink="http://www.w3.org/1999/xlink" zoomAndPan="magnify" preserveAspectRatio="xMidYMid meet" version="1.0" viewBox="15.32 184.27 89.48 82.47"><defs><g/><clipPath id="d00fb81a66"><path d="M 21 191 L 100 191 L 100 253 L 21 253 Z M 21 191 " clip-rule="nonzero"/></clipPath><clipPath id="d24eb0ea8f"><path d="M 92.421875 184.269531 L 104.804688 243.742188 L 27.707031 259.792969 L 15.324219 200.320312 Z M 92.421875 184.269531 " clip-rule="nonzero"/></clipPath><clipPath id="f55d80c967"><path d="M 92.421875 184.269531 L 104.804688 243.742188 L 27.707031 259.792969 L 15.324219 200.320312 Z M 92.421875 184.269531 " clip-rule="nonzero"/></clipPath><clipPath id="1ffe6ccd99"><path d="M 45 199 L 91 199 L 91 265 L 45 265 Z M 45 199 " clip-rule="nonzero"/></clipPath><clipPath id="c78b9eaadf"><path d="M 62.8125 198.21875 L 91.289062 207.652344 L 71.714844 266.742188 L 43.238281 257.308594 Z M 62.8125 198.21875 " clip-rule="nonzero"/></clipPath><clipPath id="cf33b6bc1a"><path d="M 62.8125 198.21875 L 91.289062 207.652344 L 71.714844 266.742188 L 43.238281 257.308594 Z M 62.8125 198.21875 " clip-rule="nonzero"/></clipPath></defs><g clip-path="url(#d00fb81a66)"><g clip-path="url(#d24eb0ea8f)"><g clip-path="url(#f55d80c967)"><path fill="#283618" d="M 98.382812 213.4375 C 97.507812 210.171875 95.859375 207.160156 94.175781 204.207031 C 91.328125 199.164062 87.808594 193.921875 82.328125 192.101562 C 78.214844 190.773438 73.726562 191.609375 69.554688 192.816406 C 65.386719 194.023438 61.238281 195.570312 56.921875 195.59375 C 53.523438 195.621094 50.273438 194.695312 46.894531 194.570312 C 43.710938 194.457031 40.535156 195.070312 37.457031 195.90625 C 34.832031 196.597656 32.160156 197.542969 30.046875 199.292969 C 28.113281 200.960938 26.742188 203.238281 25.667969 205.550781 C 23.355469 210.546875 22.054688 215.96875 21.699219 221.484375 C 21.449219 225.421875 21.667969 229.507812 23.019531 233.207031 C 24.824219 238.128906 28.4375 242.183594 32.484375 245.519531 C 35.523438 247.996094 38.84375 250.171875 42.601562 251.429688 C 46 252.570312 49.5625 252.894531 53.164062 252.921875 C 61 252.992188 68.992188 251.472656 75.910156 247.847656 C 80.816406 245.269531 85.089844 241.757812 89.363281 238.246094 C 93.214844 235.0625 97.035156 230.769531 97.796875 228.132812 C 99.523438 222.429688 100.089844 221.632812 98.382812 213.4375 Z M 98.382812 213.4375 " fill-opacity="1" fill-rule="nonzero"/></g></g></g><g clip-path="url(#1ffe6ccd99)"><g clip-path="url(#c78b9eaadf)"><g clip-path="url(#cf33b6bc1a)"><path fill="#ffffff" d="M 65.234375 210.644531 C 65.875 209.25 66.601562 207.890625 67.300781 206.527344 C 67.628906 205.878906 67.960938 205.238281 68.265625 204.582031 C 68.648438 203.761719 69.066406 202.90625 69.226562 202.011719 C 69.292969 201.648438 69.542969 201.332031 69.949219 201.359375 C 70.289062 201.378906 70.667969 201.710938 70.601562 202.082031 C 70.296875 203.789062 69.425781 205.375 68.644531 206.90625 C 67.9375 208.292969 67.191406 209.664062 66.542969 211.078125 C 66.390625 211.414062 66.058594 211.644531 65.671875 211.515625 C 65.347656 211.402344 65.078125 210.988281 65.234375 210.644531 Z M 70.796875 213.019531 C 72.453125 210.308594 73.820312 207.429688 74.871094 204.433594 C 75.167969 203.59375 73.859375 203.164062 73.566406 204 C 72.550781 206.886719 71.246094 209.644531 69.652344 212.257812 C 69.191406 213.011719 70.335938 213.777344 70.796875 213.019531 Z M 78.464844 205.625 C 76.984375 208.292969 75.578125 211.035156 73.941406 213.605469 C 72.675781 215.59375 71.136719 217.699219 68.886719 218.625 C 68.105469 218.945312 67.257812 219.109375 66.410156 219.074219 C 65.21875 219.019531 64.328125 218.175781 63.617188 217.273438 C 62.039062 215.277344 62.351562 212.296875 62.761719 209.953125 C 63.335938 206.679688 64.65625 203.550781 66.238281 200.648438 C 66.660156 199.875 65.519531 199.105469 65.09375 199.882812 C 63.515625 202.773438 62.195312 205.835938 61.539062 209.074219 C 61.015625 211.65625 60.574219 215 62.023438 217.378906 C 62.53125 218.214844 63.230469 219.050781 64.058594 219.644531 C 62.234375 223.742188 60.46875 227.871094 58.484375 231.890625 C 57.097656 231.300781 55.601562 231.273438 54.394531 232.324219 C 53.851562 232.800781 53.554688 233.410156 53.265625 234.042969 C 51.460938 237.992188 49.660156 241.941406 47.855469 245.890625 C 47.105469 247.527344 46.363281 249.164062 45.613281 250.800781 C 45.320312 251.441406 45.078125 252.074219 45.101562 252.800781 C 45.132812 253.671875 45.476562 254.535156 46.082031 255.164062 C 46.535156 255.632812 47.089844 255.902344 47.671875 256.171875 C 48.101562 256.367188 48.53125 256.5625 48.960938 256.757812 C 50.660156 257.480469 52.703125 256.78125 53.550781 255.128906 C 53.722656 254.785156 53.878906 254.429688 54.035156 254.078125 C 54.851562 252.296875 55.667969 250.507812 56.484375 248.722656 C 58.207031 244.953125 59.933594 241.191406 61.644531 237.421875 C 62.074219 236.480469 62.160156 235.460938 61.777344 234.480469 C 61.378906 233.457031 60.601562 232.90625 59.722656 232.460938 C 61.695312 228.457031 63.464844 224.355469 65.273438 220.277344 C 66.199219 220.566406 67.265625 220.480469 68.1875 220.285156 C 70.605469 219.78125 72.398438 218.03125 73.851562 216.140625 C 74.953125 214.710938 75.851562 213.136719 76.734375 211.5625 C 77.695312 209.835938 78.652344 208.109375 79.613281 206.390625 C 80.039062 205.621094 78.898438 204.851562 78.464844 205.625 Z M 89.285156 213.398438 C 88.59375 215.089844 87.757812 216.730469 86.980469 218.386719 C 85.566406 221.394531 84.152344 224.402344 82.742188 227.410156 C 81.582031 229.878906 80.328125 232.324219 79.261719 234.832031 C 78.34375 236.980469 77.457031 239.144531 76.558594 241.300781 C 76.632812 241.40625 76.703125 241.511719 76.761719 241.636719 C 77.199219 242.523438 77.113281 243.484375 76.714844 244.359375 C 74.992188 248.128906 73.269531 251.898438 71.546875 255.671875 C 70.707031 257.515625 69.863281 259.355469 69.023438 261.199219 C 68.859375 261.558594 68.703125 261.917969 68.535156 262.273438 C 67.835938 263.753906 66.175781 264.503906 64.621094 263.855469 C 64.199219 263.664062 63.78125 263.472656 63.355469 263.28125 C 62.875 263.058594 62.339844 262.863281 61.921875 262.53125 C 61.230469 261.972656 60.816406 261.140625 60.796875 260.25 C 60.785156 259.609375 61.019531 259.078125 61.277344 258.515625 C 62.023438 256.875 62.773438 255.238281 63.519531 253.597656 C 65.359375 249.570312 67.195312 245.542969 69.035156 241.515625 C 69.222656 241.109375 69.390625 240.648438 69.652344 240.289062 C 70.175781 239.570312 70.992188 239.117188 71.878906 239.058594 C 72.027344 239.046875 72.175781 239.050781 72.320312 239.066406 C 72.734375 238.097656 73.144531 237.125 73.5625 236.152344 C 72.925781 235.878906 72.289062 235.605469 71.65625 235.332031 C 71.328125 235.191406 71.078125 234.832031 71.21875 234.460938 C 72.226562 231.84375 73.242188 229.230469 74.359375 226.65625 C 76.324219 222.148438 78.625 217.734375 81.734375 213.898438 C 83.074219 212.242188 84.542969 210.507812 86.472656 209.527344 C 87.25 209.132812 88.574219 208.566406 89.449219 208.890625 C 89.96875 209.082031 90.101562 209.519531 89.996094 209.898438 C 90.007812 209.921875 90.023438 209.941406 90.035156 209.964844 C 90.1875 210.292969 90.082031 210.632812 90.023438 210.96875 C 89.867188 211.804688 89.605469 212.613281 89.285156 213.398438 Z M 88.589844 211.136719 C 88.644531 210.917969 88.671875 210.691406 88.722656 210.472656 C 88.71875 210.496094 88.851562 210.675781 88.75 210.488281 C 88.699219 210.386719 88.632812 210.296875 88.570312 210.199219 C 88.199219 210.273438 87.710938 210.480469 87.550781 210.546875 C 87.136719 210.71875 86.730469 210.933594 86.363281 211.183594 C 85.570312 211.71875 84.875 212.394531 84.230469 213.09375 C 78.703125 219.070312 75.640625 226.816406 72.75 234.308594 C 73.394531 234.585938 74.035156 234.863281 74.675781 235.140625 C 74.996094 235.277344 75.269531 235.648438 75.113281 236.011719 C 74.621094 237.164062 74.128906 238.316406 73.636719 239.472656 C 73.644531 239.476562 73.652344 239.476562 73.660156 239.484375 C 74.257812 239.753906 74.902344 239.996094 75.476562 240.335938 C 75.851562 239.433594 76.230469 238.53125 76.605469 237.628906 C 78.171875 233.886719 79.902344 230.234375 81.628906 226.5625 C 83.027344 223.589844 84.421875 220.617188 85.820312 217.644531 C 86.488281 216.222656 87.1875 214.8125 87.8125 213.367188 C 88.125 212.640625 88.40625 211.902344 88.589844 211.136719 Z M 88.589844 211.136719 " fill-opacity="1" fill-rule="nonzero"/></g></g></g><g fill="#283618" fill-opacity="1"><g transform="translate(116.870636, 241.083411)"><g/></g></g><g fill="#283618" fill-opacity="1"><g transform="translate(144.272013, 241.083411)"><g/></g></g><g fill="#283618" fill-opacity="1"><g transform="translate(215.799607, 241.083411)"><g/></g></g><g fill="#283618" fill-opacity="1"><g transform="translate(294.585148, 241.083411)"><g/></g></g><g fill="#283618" fill-opacity="1"><g transform="translate(322.565058, 241.083411)"><g/></g></g></svg>