<svg width="27" height="36" viewBox="0 0 27 36" fill="none" xmlns="http://www.w3.org/2000/svg">
<path d="M23.1424 34.8366L14.9199 28.5308C14.1384 27.9365 13.0565 27.9365 12.2749 28.5308L3.9758 34.8366C3.3706 35.3231 2.5455 35.4338 1.8334 35.124C1.1214 34.8143 0.639922 34.1352 0.583252 33.3608V6.4124C0.657592 4.83246 1.3588 3.34733 2.5317 2.28604C3.7045 1.22474 5.2521 0.674889 6.8316 0.758269H20.2483C21.8373 0.685659 23.3891 1.25325 24.5563 2.33398C25.7235 3.41472 26.4086 4.91834 26.4583 6.5083V33.3608C26.3836 34.1074 25.9144 34.7566 25.229 35.0617C24.5435 35.3668 23.7471 35.2809 23.1424 34.8366Z" fill="black"/>
</svg>
