<svg width="28" height="36" viewBox="0 0 28 36" fill="none" xmlns="http://www.w3.org/2000/svg">
<path fill-rule="evenodd" clip-rule="evenodd" d="M7.0534 0.758316H20.9464C22.5787 0.674886 24.1783 1.22189 25.3922 2.2786C26.6061 3.3353 27.3345 4.81484 27.4165 6.3907V33.3264C27.4188 33.8659 27.1854 34.3812 26.7736 34.7459C26.3618 35.1106 25.8098 35.2908 25.2532 35.2422C24.7654 35.2422 24.2912 35.0874 23.9036 34.8016L15.3098 28.4987C14.4983 27.9112 13.3824 27.9112 12.5709 28.4987L4.0565 34.8016C3.6797 35.0796 3.2208 35.234 2.7466 35.2422C2.19 35.2908 1.638 35.1106 1.2262 34.7459C0.814438 34.3812 0.580998 33.8659 0.583268 33.3264V6.3907C0.665348 4.81484 1.3937 3.3353 2.6076 2.2786C3.8215 1.22189 5.4211 0.674886 7.0534 0.758316ZM17.1556 26.2189L24.3998 31.5831L24.3601 6.3907C24.1723 4.72044 22.6416 3.49771 20.9067 3.63197H7.0137C5.2788 3.49771 3.7482 4.72044 3.5603 6.3907V31.5831L10.8045 26.2189C12.6803 24.8393 15.2798 24.8393 17.1556 26.2189Z" fill="black"/>
</svg>
