<svg width="185" height="169" viewBox="0 0 185 169" fill="none" xmlns="http://www.w3.org/2000/svg">
<path d="M9.5875 97.9699C9.5875 97.9699 50.0288 111.485 66.1226 110.36C82.2164 109.236 142.03 103.732 152.859 99.0338C163.687 94.3361 177.075 89.3425 177.075 89.3425C177.075 89.3425 176.201 122.947 158.662 141.346C141.123 159.744 100.572 176.479 55.2675 155.713C9.96267 134.946 12.486 119.443 11.0664 115.108C9.64687 110.777 9.5875 97.9699 9.5875 97.9699Z" fill="#CA9E67"/>
<path d="M172.52 87.7008C172.52 87.7008 131.011 108.909 89.1628 108.665C47.3151 108.42 20.1582 100.635 20.1582 100.635C20.1582 100.635 12.5639 92.0799 15.5303 87.9446C18.4931 83.8125 23.8048 82.5839 23.8048 82.5839C23.8048 82.5839 20.0147 77.5844 22.5947 75.5306C25.1712 73.4735 32.8506 73.227 32.8506 73.227L34.0586 61.5551L51.9469 44.9213C51.9469 44.9213 55.164 33.4262 59.1868 33.3078C63.2095 33.1894 70.8452 37.1032 70.8452 37.1032C70.8452 37.1032 75.9801 35.2314 81.8257 35.6086C87.6714 35.9859 92.4169 36.5098 92.4169 36.5098C92.4169 36.5098 101.616 30.1956 104.722 30.2256C107.828 30.2556 110.021 30.2768 110.001 32.3585C109.981 34.4403 111.062 35.8912 111.062 35.8912C111.062 35.8912 120.941 34.7067 126.587 36.8401C132.232 38.9766 139.688 42.8886 144.212 47.4139C148.736 51.9392 155.441 58.0864 155.441 58.0864C155.441 58.0864 161.664 57.0269 162.91 60.7186C164.152 64.4133 165.6 66.1854 165.6 66.1854C165.6 66.1854 171.786 68.9656 172.113 72.9723C172.441 76.9758 172.52 87.7008 172.52 87.7008Z" fill="#F6F6F6"/>
<path d="M91.867 93.8024L87.1478 90.5552L92.1552 82.9205L101.088 85.2491L103.795 88.6373L100.083 94.5233L91.867 93.8024Z" fill="#9FC01A"/>
<path d="M184.084 36.6036C184.829 37.5229 184.206 38.8377 183.231 39.363C174.388 44.1522 167.468 50.5639 161.081 57.5154C162.55 57.7812 163.947 58.2036 165.124 59.0326C167.584 60.8176 168.132 63.5276 168.322 66.1712C175.606 70.4558 176.081 76.9705 174.469 84.0939C176.195 83.8276 177.912 84.5046 178.834 85.6457C181.245 85.1344 183.928 86.1982 183.721 89.0266C180.456 129.596 155.37 169.106 103.492 168.227C63.3905 167.525 -1.01844 140.579 7.87133 97.5795C7.87163 97.548 7.87163 97.5481 7.87194 97.5166C6.23433 96.0541 8.2692 93.5578 10.6298 94.5241C11.8459 95.0076 13.0622 95.4911 14.2787 95.9432C12.6091 94.0715 11.4081 92.0156 11.6804 89.8482C12.2657 85.0106 16.3403 83.2574 20.4552 81.0328C19.4833 77.564 19.0257 72.905 23.4915 71.533C26.5524 70.6191 31.3943 71.2005 34.5487 71.7657C35.9109 71.999 36.4319 73.8281 35.3471 74.6038C33.3937 76.0945 31.0955 76.1037 28.6181 76.0798C27.8641 76.0725 26.358 75.8693 25.7077 76.2718C25.0937 76.6433 26.4524 80.965 26.5905 81.5324C26.9012 82.8248 26.1329 84.2956 24.5498 84.6262C20.8803 85.3456 15.2154 88.1842 17.6548 92.139C19.1403 94.4806 21.0584 96.6377 22.905 98.7627C22.9403 98.8259 22.9756 98.8891 23.0109 98.9524C46.3526 106.191 71.7578 107.978 96.3414 105.605C123.225 103.003 144.957 94.7531 169.101 85.8976C168.961 85.5503 168.892 85.1722 169.004 84.733C170.141 78.5484 171.307 73.1503 164.159 69.6847C163.301 69.2675 162.771 68.4133 162.779 67.5643C162.751 62.9723 160.999 62.295 157.669 61.3193C154.946 64.4065 152.294 67.5573 149.607 70.6762C150.36 70.7779 151.111 71.0367 151.572 71.6387C153.525 73.9534 156.634 75.4931 157.539 78.4266C157.992 79.8777 158.58 82.1477 157.204 83.3295C155.792 84.5424 153.662 85.7798 151.824 86.454C149.373 87.4052 146.461 87.7544 144.506 85.6913C142.978 84.1041 142.027 82.1764 140.715 80.4026C135.784 85.4183 130.424 90.0525 124.068 93.8279C123.346 94.2298 122.341 94.1572 121.627 93.8043C118.697 92.2979 117.279 90.3657 115.22 87.9871C114.19 86.8135 114.85 85.3732 115.968 84.8179C126.562 69.8874 135.196 53.3026 147.396 39.2996C158.362 26.7629 172.373 22.3067 184.084 36.6036ZM177.936 37.4563C180.246 36.2206 170.884 31.3813 169.268 31.3971C163.307 31.4967 158.381 35.852 154.861 39.7177C145.389 50.036 138.808 62.2692 131.48 73.7403C129.474 76.8974 126.248 83.7222 121.767 86.7295C129.626 87.1829 143.31 71.9992 153.878 59.7416C152.813 58.4419 153.875 56.2821 156.169 56.7446C156.24 56.7767 156.348 56.7778 156.42 56.8099C160.886 51.6325 164.554 47.3279 166.69 45.5245C170.165 42.6333 173.821 39.6494 177.936 37.4563ZM108.158 161.039C152.857 157.949 169.212 126.469 174.931 91.9608C154.111 106.163 121.382 111.665 96.267 113.31C67.199 115.262 36.8473 112.578 11.3005 99.4367C15.093 137.999 66.3691 163.969 108.158 161.039ZM147.914 82.3277C148.91 83.3122 151.079 81.7922 152.49 80.7051C151.763 77.8676 148.438 76.3888 147.029 73.6391C145.903 74.9491 144.705 76.2269 143.508 77.5362C145.109 79.0299 146.349 80.7715 147.914 82.3277Z" fill="#1D1D1B"/>
<path d="M169.269 31.3964C170.885 31.3806 180.246 36.22 177.936 37.4556C173.821 39.6488 170.166 42.6326 166.691 45.5238C164.555 47.3273 160.886 51.6319 156.42 56.8093C156.348 56.7772 156.241 56.7761 156.169 56.7439C153.875 56.2815 152.813 58.4413 153.878 59.741C143.31 71.9986 129.627 87.1822 121.767 86.7289C126.249 83.7216 129.475 76.8967 131.48 73.7397C138.808 62.2685 145.39 50.0353 154.861 39.717C158.382 35.8513 163.307 31.4961 169.269 31.3964Z" fill="#FCDA7A"/>
<path d="M152.49 80.7049C151.079 81.792 148.91 83.312 147.914 82.3275C146.349 80.7713 145.109 79.0297 143.508 77.5361C144.706 76.2267 145.903 74.9489 147.029 73.6389C148.438 76.3886 151.763 77.8674 152.49 80.7049Z" fill="#FCDA7A"/>
<path d="M141.361 43.3608C141.994 44.6878 140.897 46.7529 138.929 46.0734C134.312 44.4878 131.115 40.9031 126.135 39.7542C121.227 38.5746 116.308 38.5585 111.243 38.7612C110.525 38.7857 110.025 38.4977 109.669 38.1169C107.531 36.4923 107.58 35.1404 107.241 32.9671C102.705 34.1813 98.461 34.9265 94.9796 38.4781C94.3266 39.1637 93.2127 39.2473 92.2807 39.0811C84.3228 37.6833 82.098 37.5359 74.1702 40.447C72.9449 40.9069 71.8325 40.8333 70.7989 40.0371C62.711 33.5117 56.8124 38.235 54.0837 45.6307C53.8634 46.1318 53.3937 46.4418 52.8539 46.5624C58.4398 55.611 63.2684 64.9981 66.9794 74.8463C68.0298 77.624 63.5661 78.7759 62.0076 76.5594C61.8643 76.5265 61.7565 76.5255 61.6135 76.4612C53.3911 72.7021 46.1178 67.3483 39.4989 61.1517C39.9207 62.0993 40.162 63.1395 40.3686 64.0535C40.7447 66.007 38.5445 67.0235 37.0432 66.3171C36.6352 67.6655 36.2634 68.9828 35.9987 70.3641C35.6591 72.0591 32.3559 72.0271 32.0492 70.3259C31.7108 68.184 31.3728 66.0108 31.681 63.8437C31.8736 62.4932 32.3944 60.6113 33.732 59.6807C34.744 58.9986 36.0761 58.6341 37.2579 58.96C23.0672 44.8592 12.1095 26.89 1.87364 12.2613C1.23587 11.3746 1.46374 10.0873 2.33243 9.37237C6.49514 5.9217 10.4011 3.03463 15.2378 0.439609C16.5011 -0.240071 17.8241 0.338809 18.6411 1.25874C30.2516 14.8314 41.5713 28.7787 51.0155 43.5884C51.5987 38.9709 53.3458 32.8236 58.9608 31.4312C61.6962 30.7658 63.7059 30.8796 66.4644 31.5352C69.0081 32.1259 72.1671 35.9304 75.086 34.8579C81.5721 32.4989 84.048 32.6801 90.6796 33.845C92.7587 34.211 95.8461 30.5613 98.0058 30.0161C101.605 29.1074 105.092 28.7636 108.587 27.508C109.884 27.0487 111.634 28.0407 111.91 29.1755C112.013 29.6797 112.628 32.9249 112.933 34.7519C122.679 33.2422 137.138 34.4198 141.361 43.3608ZM59.7928 71.6633C53.6445 57.6403 45.8377 44.3246 36.5162 31.6861C31.3766 24.749 26.0922 17.9362 20.6277 11.1846C15.0211 4.27444 5.92687 8.99832 11.1008 16.093C25.5223 36.0457 40.3816 55.2792 59.7928 71.6633Z" fill="#1D1D1B"/>
<path d="M114.254 54.1692C115.465 55.2502 117.82 56.7196 117.624 58.4475C117.426 60.3325 117.274 61.2116 115.431 62.4518C113.19 63.9397 110.595 64.9839 108.461 66.5987C107.339 67.4684 105.869 67.2341 105.017 66.188C102.924 63.5889 101.08 61.1495 99.4909 58.4295C99.0957 58.4571 98.6648 58.4529 98.2708 58.3548C96.3003 57.8954 95.9288 55.4702 97.6254 54.5431C97.6701 53.6315 98.7893 53.0133 99.6108 53.4616C101.633 52.286 103.405 50.9508 105.216 49.3959C106.23 48.5251 107.953 48.5417 108.95 49.432C110.73 51.0216 112.474 52.6109 114.254 54.1692ZM112.482 59.1526C110.594 57.6562 108.814 56.0351 107.035 54.3825C105.731 55.565 104.211 56.7768 102.623 57.6106C103.898 59.447 105.317 61.1904 107.026 62.6851C108.833 61.476 110.747 60.4253 112.482 59.1526Z" fill="#1D1D1B"/>
<path d="M107.034 54.3829C108.814 56.0355 110.593 57.6566 112.482 59.153C110.746 60.4257 108.833 61.4764 107.026 62.6855C105.317 61.1908 103.897 59.4474 102.623 57.611C104.211 56.7772 105.73 55.5654 107.034 54.3829Z" fill="#FF4121"/>
<path d="M106.362 86.832C106.896 87.2775 107.246 88.193 106.953 88.8506C105.56 91.7305 103.476 95.6415 99.4128 96.1997C96.2849 96.6098 92.8798 95.9794 89.9077 95.1329C88.0815 94.6121 87.9612 92.1894 89.9405 91.7367C92.5314 91.1642 94.7495 92.0033 97.3343 92.0598C99.6322 92.082 100.904 90.4904 101.818 88.8009C99.5022 86.9545 96.967 85.4833 94.287 84.1365C93.5434 86.7711 92.1197 89.1789 89.9104 91.1389C88.0628 92.8193 85.3223 90.3083 87.0624 88.5954C89.2011 86.5089 90.2325 83.8143 90.3311 81.0477C90.3825 79.4443 92.2209 78.7072 93.7587 79.351C98.4077 81.3144 102.658 83.6827 106.362 86.832Z" fill="#1D1D1B"/>
<path d="M89.2464 59.5256C89.9241 63.7149 87.3065 67.0548 84.4393 70.2035C83.5682 71.17 81.667 70.9629 80.7411 70.1677C79.3171 68.896 76.655 65.6939 74.5391 65.4218C72.6383 65.1833 71.3248 63.6296 72.3459 62.0041C73.9506 59.4407 76.3772 57.2941 76.8369 54.3108C77.143 52.3639 80.1963 52.2363 80.5012 54.1262C80.7671 52.6192 82.967 51.634 84.3904 52.9687C86.1345 54.558 88.873 57.2891 89.2464 59.5256ZM82.3704 65.0573C83.6794 63.3716 84.7757 61.4008 83.7868 59.693C82.8685 58.1116 80.979 56.7097 80.5296 54.9127C80.4687 57.491 79.4049 59.808 78.1264 62.06C79.6627 62.8611 81.0885 63.9441 82.3704 65.0573Z" fill="#1D1D1B"/>
<path d="M83.7868 59.693C84.7757 61.4008 83.6794 63.3716 82.3704 65.0573C81.0885 63.9441 79.6627 62.8611 78.1264 62.06C79.4049 59.808 80.4687 57.491 80.5295 54.9127C80.979 56.7097 82.8684 58.1116 83.7868 59.693Z" fill="#FCDA7A"/>
<path d="M62.5104 91.4083C62.5752 92.1323 62.0297 92.8504 61.3083 93.1894C58.2053 94.7318 53.7343 96.6385 50.5991 94.0923C48.9959 92.7873 48.7327 90.3002 46.9469 89.308C45.2682 88.3798 45.8597 86.6243 47.2295 86.0715C45.1924 85.0768 45.6157 82.1561 48.4186 81.9316C51.6524 81.7112 54.9877 82.1209 58.1832 82.1518C59.5835 82.1653 60.5435 83.1496 60.6044 84.2824C60.7246 86.7051 62.3908 88.9226 62.5104 91.4083ZM57.5301 90.2909C57.2197 88.967 56.6933 87.704 56.239 86.4102C54.0479 86.4834 51.8569 86.5565 49.6673 86.4724C51.3098 87.4318 52.2288 88.9503 53.256 90.4069C54.1411 91.7049 55.9427 91.0618 57.5301 90.2909Z" fill="#1D1D1B"/>
<path d="M56.2392 86.4102C56.6935 87.704 57.22 88.967 57.5304 90.2909C55.943 91.0618 54.1414 91.7049 53.2563 90.4069C52.229 88.9503 51.3101 87.4318 49.6676 86.4724C51.8571 86.5565 54.0482 86.4834 56.2392 86.4102Z" fill="#FF4121"/>
<path d="M36.516 31.6863C45.8375 44.3248 53.6443 57.6405 59.7926 71.6635C40.3814 55.2794 25.5221 36.0459 11.1006 16.0933C5.92671 8.99853 15.021 4.27466 20.6276 11.1849C26.0921 17.9364 31.3765 24.7492 36.516 31.6863Z" fill="#FCDA7A"/>
</svg>
