<svg width="179" height="169" viewBox="0 0 179 169" fill="none" xmlns="http://www.w3.org/2000/svg">
<path d="M83.8267 52.2498C83.8836 51.9437 83.2881 50.6499 83.3689 50.3518C77.9583 51.4006 69.4265 52.3509 67.224 59.5647C64.5426 68.3464 69.9921 70.3349 75.8575 71.9054C75.9772 71.3464 76.0969 70.7874 76.1867 70.2018C72.6255 68.791 69.1242 65.8096 69.633 62.1361C70.1716 58.2497 75.1094 55.5878 79.1792 55.3216C79.5383 55.3216 79.7479 55.4547 79.8975 55.6677C80.1459 55.0794 80.487 54.547 80.7922 53.9907C80.4062 53.6979 83.722 52.8061 83.8267 52.2498Z" fill="#FF4121"/>
<path d="M108.117 0.515037C166.652 8.18138 194.243 68.8732 170.482 113.913C149.564 153.576 98.6309 180.887 50.0915 163.824C3.73672 147.48 -9.46046 100.816 6.43004 61.7126C18.8193 31.2336 53.7724 -6.16646 94.0523 0.861019C94.142 0.8344 94.2318 0.78122 94.3515 0.754601C98.9302 0.302074 103.509 -0.0972051 108.117 0.515037ZM163.659 110.346C184.577 67.0631 156.896 8.6339 99.9776 6.58422C80.9449 6.71732 62.78 9.80513 47.518 21.1183C32.4654 32.325 20.7345 47.072 14.3305 63.6558C0.355186 99.991 9.90147 144.179 55.2089 158.287C99.0499 171.943 146.033 146.841 163.659 110.346Z" fill="#1D1D1B"/>
<path d="M99.9779 6.58398C156.896 8.63367 184.578 67.0628 163.66 110.346C146.033 146.841 99.0502 171.943 55.2092 158.287C9.90182 144.179 0.355533 99.9908 14.3308 63.6556C20.7349 47.0718 32.4657 32.3248 47.5183 21.1181C62.7804 9.80489 80.9452 6.71708 99.9779 6.58398ZM156.478 100.683C166.383 70.5233 156.208 32.4046 119.489 21.7303C111.409 19.3878 102.791 18.749 94.3519 18.8821C93.6636 18.8821 93.1249 19.095 92.6761 19.3612C14.4206 13.9841 -10.717 139.254 71.9974 152.91C112.756 159.645 145.495 134.01 156.478 100.683Z" fill="#F6F6F6"/>
<path d="M119.489 21.7303C156.208 32.4046 166.383 70.5234 156.477 100.683C145.495 134.01 112.756 159.645 71.9972 152.91C-10.7172 139.254 14.4203 13.9842 92.6758 19.3613C93.1247 19.0951 93.6634 18.8821 94.3517 18.8821C102.791 18.749 111.409 19.3878 119.489 21.7303ZM86.8702 147.426C163.24 144.685 180.029 25.6967 94.3517 24.4722C93.7831 24.4722 93.3342 24.339 92.9153 24.1527C57.0943 29.6629 30.9991 52.9548 28.246 86.6015C25.5826 119.024 47.2487 148.864 86.8702 147.426Z" fill="#1D1D1B"/>
<path d="M44.376 108.349C44.346 108.509 44.3161 108.695 44.346 108.881C44.346 108.881 44.4956 109.334 44.4956 109.387V109.414C44.8846 110.132 45.1839 110.372 45.7525 110.665C46.5007 111.064 47.3386 111.304 48.1765 111.304C49.2239 111.33 50.2114 111.197 51.2289 110.718C54.0419 109.44 55.7177 107.071 56.9147 104.542C56.1067 103.904 55.239 103.478 54.012 103.531C52.6953 103.584 51.5581 103.691 50.2713 103.424C49.9721 103.371 49.8224 103.212 49.7326 102.999C48.5655 103.717 47.3984 104.489 46.3809 105.394C45.9021 105.82 45.4533 106.273 45.0941 106.805C44.9445 107.071 44.765 107.311 44.6453 107.577C44.5854 107.684 44.5555 107.684 44.5555 107.71C44.5256 107.737 44.5256 107.763 44.5256 107.843C44.4657 107.896 44.376 108.349 44.376 108.349ZM148.397 75.1283C151.48 81.437 148.128 85.7227 142.921 89.5825C145.973 94.1344 143.669 96.0775 141.215 100.283C141.544 100.523 141.904 100.736 142.233 101.029C144.357 102.839 142.861 106.14 141.335 108.03C140.228 109.44 138.432 110.186 136.517 110.159C134.991 110.159 133.315 109.574 131.878 110.026C130.203 110.532 129.155 108.243 130.681 107.497C132.447 106.645 134.273 106.858 136.188 106.885C138.522 106.938 139.18 105.102 139.599 103.318C139.48 103.238 139.36 103.158 139.24 103.078C137.923 103.637 136.038 102.626 135.978 101.162C135.35 100.896 134.721 100.603 134.093 100.337C133.225 102.573 132.776 104.968 131.011 106.805C129.544 108.349 127.031 106.113 128.527 104.569C130.262 102.759 130.502 99.5647 131.609 97.3819C132.028 96.5567 133.225 96.4769 134.033 96.8229C135.23 97.3287 136.397 97.7812 137.534 98.2869C139.3 95.9977 141.245 93.3624 138.282 90.6206C137.205 89.6091 137.534 88.1982 138.731 87.4529C145.914 82.9542 146.333 77.4441 140.078 72.5195C139.988 72.4397 139.928 72.3598 139.869 72.28C139.988 72.7857 139.809 73.3714 139.42 73.7706C138.462 74.7822 139.839 77.4707 139.899 78.6952C139.958 79.5204 139.09 80.2125 138.193 80.2125C135.38 80.2125 132.567 80.2125 129.754 80.1326C128.916 80.106 128.078 79.4938 128.138 78.6952C128.228 77.5506 128.587 76.4325 128.826 75.3145C128.946 74.6224 129.305 73.3714 129.035 72.5195C128.886 72.4131 128.736 72.3598 128.587 72.2267C127.868 71.6411 127.958 70.949 128.377 70.4699C127.15 71.6411 125.654 72.7857 124.337 74.3296C124.517 74.4627 124.696 74.5692 124.816 74.7555C127.719 79.201 125.145 81.5701 125.295 86.1752C125.295 86.4414 125.235 86.6543 125.145 86.8673C127.33 90.7004 127.659 94.9063 126.701 98.9791C126.821 98.8992 126.941 98.8459 127.031 98.7661C128.257 97.8344 129.873 98.9525 129.484 100.07C130.352 101.029 129.873 102.945 128.078 102.865C127.3 102.839 126.252 102.892 125.385 102.706C121.734 110.825 112.965 117.559 103.539 118.172C103 121.552 103.299 125.598 106.172 128.021C109.165 130.549 112.816 130.922 115.898 128.021C117.574 126.477 118.442 123.735 120.447 122.431C122.631 120.993 122.572 120.674 121.464 118.065C121.135 117.24 122.033 116.175 123.021 116.255C127.659 116.681 129.065 115.137 131.699 112.235C132.657 111.144 133.345 110.745 134.841 110.612C135.769 110.505 136.307 111.597 135.888 112.235C133.255 116.282 130.173 119.05 125.385 119.21C125.893 120.461 126.252 121.845 125.534 122.803C124.756 123.868 123.499 124.054 122.631 124.933C119.37 128.367 118.591 133.078 112.427 133.691C108.058 134.116 104.975 132.546 103 130.07C104.467 135.368 102.611 140.665 93.9926 139.573C89.9526 139.041 87.9177 137.657 87.2294 135.927C84.2069 137.444 80.7057 138.482 77.6532 137.045C77.3839 136.938 77.2043 136.778 76.9649 136.619C73.314 140.132 68.0172 142.155 62.7502 140.292C56.0768 137.976 54.3711 131.508 54.8798 125.731C52.0369 125.918 48.5655 125.705 47.6977 123.096C46.8298 120.487 48.0867 117.586 48.7451 114.897C46.8298 115.03 44.9145 114.738 43.2686 113.726C40.725 112.209 39.2287 109.494 40.1863 106.778C40.4556 105.98 40.8747 105.314 41.3834 104.702C38.1514 103.345 35.5479 100.922 35.5479 97.4884C35.5479 95.3322 36.1464 93.1228 37.523 91.2861C38.8397 89.5824 41.7724 88.0119 42.4906 86.1486C45.1839 79.0945 51.7975 77.9232 57.8125 80.4255C58.83 78.0563 60.3862 75.8736 61.8525 73.6109H61.8226C60.6555 74.1167 59.6081 74.6757 58.6804 75.4742C57.7826 76.2462 56.0769 76.1664 55.4783 75.1016C55.0295 74.303 54.7002 73.5044 54.401 72.7325C51.2289 73.2648 47.2488 73.2382 44.2862 71.9871C43.7775 72.0936 43.2387 72.2001 42.7 72.3332C40.2162 72.972 41.6527 75.075 42.2213 76.7253C42.4607 77.4707 42.0716 78.2693 41.3235 78.6419C39.109 79.8132 37.4631 81.0909 36.1165 83.0075C36.2062 83.0608 36.3259 83.1406 36.4756 83.2471C37.0441 83.4334 37.5529 83.673 38.0616 83.9392C38.7499 84.3651 39.1988 84.6845 39.7973 85.2169C41.0243 86.3083 39.4083 88.2249 37.912 87.373C36.0566 86.3349 30.7298 85.8025 31.6874 82.7147C32.5553 79.9197 35.2187 77.7902 38.0018 76.3794C37.1639 74.2764 36.8346 71.9073 38.7798 70.2037C39.3484 69.6979 40.1265 69.3518 40.9644 69.0856C40.725 68.6331 40.4855 68.1273 40.3658 67.5683C39.109 61.2862 48.3261 56.8941 51.1092 52.076C51.9771 50.5587 53.1441 49.2277 55.1491 48.8816C59.2489 48.1629 58.9197 46.8586 60.9547 43.7974C64.845 37.9145 73.1943 38.9793 79.4188 40.3369C79.8677 40.4434 80.0771 40.7362 80.1071 41.0822C81.6931 40.8959 83.0997 40.8693 83.2194 40.683C84.1471 39.1124 83.4887 36.6901 85.2244 35.5987C87.0798 34.4008 90.4015 34.6936 92.8854 34.8267C93.7233 32.218 93.9328 30.1684 96.1772 27.7993C96.6261 27.3201 97.6435 27.0805 98.3019 27.32C104.437 29.423 108.896 32.5907 112.517 37.4886C112.636 37.6483 112.696 37.8081 112.726 37.9412C114.192 38.3405 115.569 39.3786 116.766 40.6297C117.065 40.1771 117.604 39.8311 118.352 39.911C121.434 40.2836 128.676 38.6865 131.011 41.3484C132.417 42.9456 132.656 44.383 133.135 46.3528C133.644 48.4025 138.342 50.745 139.839 52.4221C143.31 56.2818 142.682 59.4495 140.228 61.7653C141.574 62.7503 142.861 63.8417 143.34 65.3058C143.968 67.2223 143.579 69.9374 145.165 71.4814C146.123 72.413 147.829 73.9038 148.397 75.1283ZM139.539 70.6828C140.138 66.9029 138.672 65.5453 137.115 63.8416C135.2 64.7733 133.016 65.4388 130.831 65.7582C130.681 67.6748 129.814 68.9792 128.676 70.177C129.275 69.7511 130.173 69.5914 130.951 70.1238C131.849 70.7627 134.153 70.3634 135.23 70.39C136.786 70.4699 138.193 70.6828 139.42 71.5879C139.509 71.6411 139.539 71.721 139.599 71.8008C139.48 71.4548 139.48 71.0555 139.539 70.6828ZM136.876 59.4495C137.893 58.6509 138.193 57.5329 137.056 55.8825C135.38 53.4335 133.075 51.863 130.352 50.3723C129.425 49.8666 129.185 49.068 129.335 48.163C130.532 41.242 123.529 43.0255 118.322 42.5197C118.861 43.265 119.34 44.0103 119.759 44.7291C123.05 46.5392 126.193 48.6155 127.779 51.8364C129.245 54.7912 129.125 58.1186 128.766 61.3129C130.382 61.233 133.046 61.0467 135.051 60.3812C135.2 59.7157 136.098 59.3164 136.876 59.4495ZM131.549 77.2046C133.105 77.1779 134.691 77.1513 136.278 77.1513C136.008 75.8735 135.649 74.6491 135.948 73.4246C134.901 73.2915 133.524 73.5044 132.746 73.4778C132.477 73.4512 132.208 73.4246 131.968 73.4246C131.998 74.6491 131.729 75.9534 131.549 77.2046ZM124.577 62.2445C125.055 59.2897 125.534 55.9357 124.218 53.1939C123.29 51.1975 121.494 49.7601 119.519 48.5622C118.98 53.1141 117.783 57.5861 117.544 62.1913V62.2179C117.664 62.1913 117.813 62.1647 117.963 62.1381C120.297 62.0582 122.332 62.6171 124.577 62.2445ZM125.504 65.8381C122.751 66.4769 119.28 66.477 117.095 65.0129C116.437 64.5604 116.197 63.8416 116.347 63.256C115.689 63.3093 115 62.9632 115 62.1913C115 56.6545 116.108 51.2241 116.108 45.6873C116.108 45.2614 116.317 44.942 116.586 44.6492C114.133 41.3484 110.571 38.4736 108.507 44.0104C106.771 48.6421 107.1 53.9126 109.464 58.3314C109.883 59.1833 109.704 60.115 108.776 60.6207C108.088 60.9934 102.073 63.7086 102.91 64.8798C104.048 66.3971 105.574 67.6482 107.01 68.9259C107.04 68.9525 107.07 68.9792 107.1 69.0058C107.519 69.0058 107.938 69.059 108.387 69.1655C110.96 69.9108 111.948 71.8274 112.666 73.9037C114.701 73.8505 116.736 73.8239 118.801 73.8239C118.861 73.5843 118.951 73.3181 119.16 73.052C120.986 70.7095 124.876 68.8461 125.504 65.8381ZM121.524 82.9542C122.063 81.1175 122.482 79.3873 121.704 77.524C118.202 77.5506 114.701 77.6038 111.23 77.4175C110.063 77.3642 109.404 76.6721 109.255 75.6872C108.686 71.508 106.621 72.2267 103.18 72.7325C101.743 72.9454 100.397 72.839 98.9902 72.5195C98.8705 72.4663 98.7807 72.4131 98.691 72.3598C98.2121 72.7325 97.5238 72.8656 96.8654 72.4663C96.4166 72.1735 94.3218 70.6828 92.3168 69.6446C92.3467 70.177 92.0175 70.7094 91.3292 70.8692C90.3416 71.0555 89.2345 71.1354 88.1272 71.0555C88.0674 73.4779 88.7855 76.0332 89.4738 78.216C89.6534 78.775 89.5038 79.5204 88.9651 79.893C86.9302 81.4902 84.0274 83.5133 83.5486 86.0687C82.9501 89.2098 86.9302 90.4076 89.6235 91.1264C89.6235 91.153 89.6534 91.153 89.6833 91.153C91.8679 89.9551 94.1721 88.9436 96.5662 88.0918C96.5662 88.0652 96.5363 88.0386 96.5063 87.9853C96.3268 87.1069 95.2495 86.4947 94.621 85.8558C93.9028 85.0572 93.1247 84.1787 92.8255 83.1406C92.4364 81.8895 92.3766 81.0643 93.5138 80.1592C94.621 79.2542 96.0874 78.5887 97.464 78.1362C100.038 77.311 103.299 76.5391 104.706 79.1211C105.753 81.0111 105.544 83.673 107.04 85.3234C110.033 84.7111 113.025 84.1787 115.958 83.6197C116.975 83.4068 117.574 84.1788 117.454 84.8443C117.724 85.0572 117.993 85.3234 118.113 85.7227C120.327 93.3358 117.933 103.611 108.566 106.459C100.217 108.988 93.2744 104.25 90.3417 97.6481C87.3192 100.842 86.8703 104.596 91.808 108.855C108.297 123.123 127.868 100.47 119.729 85.5363C119.07 84.3118 120.267 82.901 121.524 82.9542ZM107.519 103.052C114.941 100.283 115.479 92.7235 114.462 86.6277C114.432 86.5478 114.462 86.4946 114.462 86.4148C108.536 88.2515 98.661 91.3127 92.7956 95.5452C95.6385 100.39 100.786 105.554 107.519 103.052ZM107.908 39.2189C108.387 38.8196 108.836 38.5268 109.315 38.3138C106.801 35.785 103.898 33.6288 100.427 32.218C97.3443 30.9935 96.8654 35.9181 96.2968 37.1426C95.9377 37.9145 95.3392 38.4735 94.3517 38.4735C92.5562 38.4735 90.0723 38.2074 88.187 38.5268C88.187 38.58 88.187 38.58 88.187 38.6332C88.0075 40.5498 87.2594 42.0405 86.0623 43.6377C85.6733 44.1434 84.985 44.6492 84.2368 44.5693C78.6407 44.0636 79.3291 46.4326 78.4912 49.0147C80.4662 48.7751 82.5011 48.7485 84.5959 49.0147C86.1521 49.2277 85.7032 51.3572 84.2368 51.3839C77.6831 51.517 70.2915 54.7911 68.077 60.674C65.8326 66.7165 69.9923 70.3367 75.8577 71.9073C75.9774 71.3483 76.097 70.7893 76.1868 70.2037C72.6257 68.7929 69.1244 65.8115 69.6331 62.1381C70.1718 58.2516 75.1095 55.5897 79.1794 55.3235C79.5385 55.3235 79.748 55.4566 79.8977 55.6695C80.3465 54.6047 80.8851 53.5933 81.5136 52.635C82.142 51.7033 83.6683 52.1292 83.7281 53.1674C84.0274 57.666 82.7405 62.4841 81.4238 67.1957C81.4837 67.1425 81.5136 67.0626 81.5735 67.036C81.8129 66.8497 81.9625 66.5835 82.2019 66.3705C82.561 66.1309 83.0399 66.3705 82.98 66.7166C83.5785 66.8497 84.177 67.1425 84.7756 67.382C85.1047 66.823 85.5236 66.2906 86.0922 65.8647C89.9825 62.9366 96.0575 67.595 98.7508 69.9907C99.05 69.8576 99.4092 69.7778 99.8281 69.8576C101.025 70.0972 102.252 69.8576 103.479 69.5648C101.085 68.3137 98.7807 66.823 98.5413 64.1611C98.3019 61.3394 102.701 59.3696 105.544 58.2782C104.437 55.1638 103.629 51.4903 103.868 48.0298C103.479 50.5054 103.868 53.0608 102.701 55.5098C102.462 56.0422 101.683 56.335 101.085 56.335C98.3318 56.335 93.6335 56.3351 92.8255 53.2472C92.197 50.958 93.2743 48.5622 92.8255 46.1931C92.5561 45.4211 92.9153 44.4362 93.9028 44.2765C96.7458 43.7707 99.888 44.2499 102.791 44.2233C103.449 44.2233 104.048 44.6492 104.287 45.1816C104.856 42.9456 105.993 40.8692 107.908 39.2189ZM104.437 85.8824C103.419 84.019 103.419 81.7298 102.192 80.0527C100.038 80.452 98.0027 81.1708 96.267 82.3953C96.6859 84.2586 98.6012 85.4831 98.9005 87.373C100.726 86.814 102.581 86.3083 104.437 85.8824ZM100.756 125.332C100.217 122.99 100.277 120.487 100.905 118.172C97.464 117.959 93.9926 116.894 90.7008 114.764C90.0723 114.338 89.4738 113.912 88.9052 113.433C88.8753 113.566 88.8753 113.7 88.8154 113.806C88.0374 115.243 85.7331 116.548 84.3266 117.533C82.7405 118.624 81.2143 119.316 79.1794 119.556C78.4612 119.609 77.6832 119.13 77.3839 118.624C76.4562 117.16 75.8876 115.776 75.5285 114.312C73.4337 115.483 71.3089 116.734 70.3812 118.677C68.5558 122.404 75.0198 124.454 77.9525 125.199C78.9401 125.439 79.329 126.264 79.1794 127.116C79.1195 127.408 79.0597 127.701 78.9998 128.047C80.2567 127.914 81.5436 128.739 81.0947 130.15C80.7954 131.108 80.3764 132.04 79.8378 132.945C80.2866 133.238 80.8553 133.424 81.6633 133.398C83.5785 133.344 85.4638 133.052 87.3192 132.652C88.4863 129.112 92.6459 125.252 96.5063 123.442C96.7158 122.644 97.853 122.138 98.631 122.883C99.4091 123.575 100.127 124.427 100.756 125.332ZM100.127 48.8816C100.187 48.296 100.307 47.737 100.457 47.2046C99.05 47.2579 97.6436 47.3377 96.267 47.3111C96.4166 48.8018 96.2968 50.2659 96.3866 51.8098C96.4165 52.3422 96.3568 52.4486 96.8356 52.6083C97.7034 52.9544 98.7508 53.0076 99.7682 53.0076C100.157 51.6766 100.038 50.2925 100.127 48.8816ZM96.4465 135.9C103.09 135.155 99.4091 128.926 97.2245 125.305C95.4589 127.142 92.7357 130.203 91.8978 132.599C91.9277 132.786 91.8679 133.025 91.7182 133.211C91.4788 134.409 91.8379 135.368 93.3043 135.767C92.7656 134.809 92.4365 133.744 92.5263 132.679C92.7058 130.842 95.2794 130.656 95.9977 132.093L96.0275 132.067C96.8654 132.067 96.8954 133.105 96.1772 133.265C96.1772 133.77 96.1473 134.329 96.0575 134.809C95.9976 135.155 96.2071 135.527 96.4465 135.9ZM87.2294 111.969C86.6907 111.437 86.1821 110.904 85.7032 110.372C84.0573 111.038 82.0822 110.851 80.2568 111.171C80.1371 111.197 80.0173 111.224 79.9275 111.25C79.8976 111.304 79.8977 111.33 79.8977 111.384C79.8977 112.076 79.9275 112.768 80.0173 113.46C80.0772 114.179 80.2867 114.897 80.5261 115.589C82.9201 114.738 84.5361 111.916 87.2294 111.969ZM85.404 78.083C84.6858 75.7937 83.7282 72.8124 83.9376 70.2037C83.0399 69.8576 82.2319 69.4317 81.5735 68.8993C81.3341 68.7129 81.2144 68.4202 81.1844 68.1274C80.556 70.3634 79.9275 72.5728 79.4787 74.6757C79.2692 75.7405 77.9824 76.1132 76.935 75.9534C73.1643 75.4211 69.5434 73.957 66.88 71.8008C66.7603 71.9606 66.5807 72.1469 66.3712 72.2533C66.042 72.4397 65.683 72.5994 65.2939 72.7059C65.2939 72.8124 65.3239 72.8922 65.2939 72.9987C64.5757 75.6872 63.0495 77.9765 62.0919 80.5852C61.7028 81.6766 61.7927 82.4219 62.1218 82.9542C62.4809 83.247 62.8101 83.5133 63.1693 83.8061C64.2466 84.2586 65.8326 84.2586 67.3588 84.1788C68.5259 84.0989 69.7229 85.1371 69.6331 86.1752C69.4835 88.012 69.0347 89.3961 68.496 91.153C68.4661 91.2595 68.466 91.3393 68.4361 91.4458C68.7054 91.6854 68.8551 92.0581 68.6756 92.5106C68.6157 92.6171 68.5559 92.7236 68.496 92.83C68.915 93.8682 70.2017 94.4006 71.698 95.0128C75.7679 96.6632 79.2393 96.7431 83.2194 96.7431C84.0274 95.4121 85.1646 94.1077 86.8105 92.9364C83.4289 92.3508 80.3765 90.9667 79.6283 87.586C78.7904 83.8593 82.3815 80.3988 85.404 78.083ZM81.1844 107.79C82.0224 107.843 83.0099 108.003 83.9376 107.897C82.5012 105.527 81.753 102.972 81.9924 100.496C76.4861 100.896 71.0098 98.5531 66.1618 96.1041C66.102 96.1574 66.072 96.1841 66.0421 96.2373C63.7378 98.6596 65.7129 99.8841 68.2565 101.322C69.1543 101.801 69.3339 102.679 68.9149 103.504C67.8376 105.607 65.7129 108.961 68.9449 110.266C70.3514 110.851 71.8177 111.251 73.284 111.703C73.8825 111.437 74.511 111.197 75.1095 111.011C75.1095 110.718 75.0797 110.479 75.0497 110.186C75.0497 108.935 76.1869 108.163 77.4737 108.03C78.7605 107.923 79.8677 107.684 81.1844 107.79ZM76.6656 67.7015C77.324 64.1611 78.0123 60.461 79.2692 57.1336C76.9948 58.4113 72.895 59.7423 73.1344 62.6172C73.3439 64.7733 74.9599 66.2906 76.6656 67.7015ZM75.5285 42.6528C75.708 42.3866 76.0073 42.1736 76.3365 41.9873C69.693 42.0405 64.0969 43.7441 62.8101 50.7184C62.6904 51.3839 61.9123 51.9695 61.224 52.1292C60.027 52.3954 56.406 52.5551 55.7477 53.6465C54.79 55.2703 53.8324 58.1452 52.2463 59.2366C50.361 60.5409 44.0467 64.4539 45.2737 67.2223C45.4832 67.6749 45.7825 67.9942 46.1416 68.3137C46.4707 68.287 46.8298 68.2604 47.1291 68.2338C48.0268 68.1806 48.5655 68.7929 48.6852 69.4583C50.2413 69.7778 52.0668 69.8044 53.623 69.831C53.4434 68.8194 53.3237 67.7813 53.2937 66.6899C53.2339 65.3057 54.7601 64.4539 56.1666 64.7467C58.2614 65.146 60.5657 65.146 62.7802 65.2259C62.4809 63.4956 62.6904 61.6057 63.5582 59.556C65.5333 54.9509 69.3039 51.7565 73.9424 50.1061C74.092 47.5773 73.9424 44.8622 75.5285 42.6528ZM74.4811 132.546C74.3315 131.002 74.7205 129.298 75.2591 127.754C70.7404 126.53 66.0122 124.56 65.9823 119.742C65.9823 117.479 67.5383 115.43 69.6331 113.833C67.7179 113.487 65.8924 112.874 64.6056 111.49C62.3911 109.148 63.7079 105.847 65.0844 103.238C62.8699 101.907 60.3263 100.044 61.0445 97.5683C61.4335 96.2107 62.421 94.8797 63.5582 93.7084C63.5582 93.7084 63.5582 93.7085 63.5582 93.6819C63.5582 91.6588 64.2465 89.8753 64.7253 87.9853C62.3612 87.7457 60.1766 87.3198 57.7826 86.4148C57.1242 86.1752 56.6155 85.2968 56.6753 84.6846C56.7352 84.1522 56.8249 83.6198 56.9147 83.114C55.5082 82.4752 54.012 81.996 52.396 82.0758C48.9246 82.2888 47.0992 84.7377 45.7525 87.373C44.2562 90.3012 40.4855 91.925 39.6177 95.3056C38.7499 98.6862 40.7849 100.869 43.6876 102.653C45.573 101.428 47.9371 100.629 50.1516 100.097C51.2588 99.8308 51.977 100.816 51.6777 101.588C52.785 101.295 53.9222 101.029 55.0593 101.082C57.0644 101.135 58.6205 101.987 60.1467 103.105C60.5956 103.451 60.7452 104.117 60.5956 104.596C59.3088 108.322 56.7352 112.448 52.4858 114.046C52.3062 114.125 52.0967 114.179 51.9172 114.232C51.8873 116.202 51.588 118.145 51.4982 120.115C51.3486 123.016 54.8499 122.111 57.2439 121.845C58.7103 121.685 59.3986 123.149 59.249 124.187C58.5607 128.234 59.2191 135.341 64.8451 136.672C69.304 137.737 72.117 135.368 74.4811 132.546ZM58.2614 71.2951C60.2365 70.2303 62.6605 69.4051 64.7553 69.6713C64.3663 69.1655 64.0072 68.6331 63.7378 68.1007C61.7927 68.2072 59.7577 68.1806 57.8125 68.3936C57.8425 69.4051 57.9921 70.3368 58.2614 71.2951Z" fill="#1D1D1B"/>
<path d="M137.115 63.8418C138.671 65.5454 140.138 66.903 139.539 70.683C139.479 71.0556 139.479 71.455 139.599 71.801C139.539 71.7211 139.509 71.6412 139.419 71.588C138.192 70.683 136.786 70.47 135.23 70.3902C134.153 70.3636 131.848 70.7628 130.951 70.124C130.172 69.5916 129.275 69.7513 128.676 70.1772C129.813 68.9793 130.681 67.675 130.831 65.7584C133.015 65.439 135.2 64.7735 137.115 63.8418Z" fill="#99B815"/>
<path d="M137.055 55.8828C138.193 57.5332 137.893 58.6512 136.876 59.4498C136.098 59.3167 135.2 59.716 135.05 60.3815C133.045 61.047 130.382 61.2333 128.766 61.3132C129.125 58.1189 129.245 54.7915 127.779 51.8368C126.192 48.6158 123.05 46.5395 119.758 44.7294C119.339 44.0107 118.861 43.2654 118.322 42.52C123.529 43.0258 130.532 41.2423 129.335 48.1633C129.185 49.0683 129.424 49.8669 130.352 50.3726C133.075 51.8633 135.38 53.4339 137.055 55.8828Z" fill="#99B815"/>
<path d="M124.217 53.1942C125.534 55.936 125.055 59.29 124.576 62.2447C122.332 62.6174 120.297 62.0585 117.963 62.1383C117.813 62.1649 117.664 62.1916 117.544 62.2182V62.1915C117.783 57.5864 118.98 53.1144 119.519 48.5625C121.494 49.7604 123.29 51.1978 124.217 53.1942Z" fill="#FF4121"/>
<path d="M117.095 65.0131C119.28 66.4771 122.751 66.4771 125.504 65.8383C124.876 68.8462 120.986 70.7097 119.16 73.0521C118.951 73.3183 118.861 73.5845 118.801 73.824C116.736 73.824 114.701 73.8507 112.666 73.9039C111.948 71.8276 110.961 69.911 108.387 69.1657C107.938 69.0592 107.519 69.006 107.1 69.006C107.07 68.9794 107.04 68.9527 107.01 68.9261C105.574 67.6484 104.048 66.3973 102.911 64.88C102.073 63.7088 108.088 60.9936 108.776 60.6209C109.704 60.1152 109.883 59.1834 109.464 58.3316C107.1 53.9128 106.771 48.6423 108.507 44.0105C110.572 38.4737 114.133 41.3486 116.587 44.6494C116.317 44.9422 116.108 45.2616 116.108 45.6875C116.108 51.2243 115 56.6547 115 62.1915C115 62.9634 115.689 63.3094 116.347 63.2562C116.198 63.8418 116.437 64.5606 117.095 65.0131Z" fill="#99B815"/>
<path d="M89.6829 91.1539C91.8675 89.956 94.1717 88.9445 96.5658 88.0927C96.5658 88.0661 96.5359 88.0394 96.506 87.9862C96.3264 87.1078 95.2491 86.4956 94.6206 85.8567C93.9024 85.0581 93.1243 84.1796 92.8251 83.1415C92.4361 81.8904 92.3762 81.0652 93.5134 80.1601C94.6207 79.2551 96.087 78.5896 97.4636 78.137C100.037 77.3119 103.299 76.54 104.706 79.122C105.753 81.012 105.543 83.6739 107.04 85.3243C110.032 84.712 113.025 84.1796 115.958 83.6206C116.667 83.4715 117.152 83.8097 117.352 84.2489H119.653C119.929 83.5035 120.71 82.9205 121.524 82.9551C122.063 81.1184 122.481 79.3882 121.703 77.5249C118.202 77.5515 114.701 77.6047 111.229 77.4184C110.062 77.3651 109.404 76.673 109.254 75.6881C108.686 71.5089 106.621 72.2276 103.179 72.7333C101.743 72.9463 100.396 72.8399 98.9899 72.5204C98.8702 72.4672 98.7804 72.414 98.6906 72.3607C98.2118 72.7334 97.5234 72.8665 96.8651 72.4672C96.4162 72.1744 94.3214 70.6837 92.3164 69.6455C92.3463 70.1779 92.0171 70.7103 91.3288 70.8701C90.3413 71.0564 89.2341 71.1363 88.1268 71.0564C88.067 73.4788 88.7851 76.0341 89.4734 78.2169C89.653 78.7759 89.5034 79.5213 88.9648 79.8939C86.9298 81.4911 84.027 83.5142 83.5482 86.0696C82.9497 89.2107 86.9298 90.4085 89.6231 91.1272C89.6231 91.1539 89.653 91.1539 89.6829 91.1539Z" fill="#99B815"/>
<path d="M117.487 83.8174C119.136 91.2761 117.457 103.758 108.566 106.46C100.217 108.989 93.2744 104.25 90.3417 97.6488C87.3192 100.843 86.8703 104.596 91.808 108.855C107.8 122.692 128.15 103.87 120.076 83.6816L117.487 83.8174Z" fill="#FF4121"/>
<path d="M114.462 86.628C115.479 92.7238 114.94 100.284 107.519 103.052C100.786 105.554 95.6383 100.39 92.7954 95.5454C98.6608 91.313 108.536 88.2518 114.462 86.415C114.462 86.4949 114.432 86.5481 114.462 86.628Z" fill="#FF4121"/>
<path d="M93.9029 44.2767C96.7458 43.7709 99.888 44.2501 102.791 44.2235C103.449 44.2235 104.048 44.6494 104.287 45.1818C104.856 42.9458 105.993 40.8694 107.908 39.219C108.387 38.8197 108.836 38.5269 109.315 38.314C106.801 35.7852 103.898 33.629 100.427 32.2182C97.3443 30.9937 96.8655 35.9183 96.2969 37.1427C95.9378 37.9147 95.3393 38.4737 94.3518 38.4737C92.5562 38.4737 90.0724 38.2076 88.1871 38.527C88.1871 38.5802 88.1871 38.5802 88.1871 38.6334C88.0075 40.55 87.2594 42.0407 86.0624 43.6378C85.6734 44.1436 84.985 44.6494 84.2369 44.5695C78.6408 44.0638 79.3291 46.4328 78.4912 49.0149C80.4663 48.7753 82.5012 48.7487 84.596 49.0149C86.1521 49.2278 85.7032 51.3574 84.2369 51.384C84.0693 51.3867 83.8958 51.416 83.7252 51.424C83.6025 51.778 83.5068 52.1373 83.408 52.494C83.5846 52.6697 83.7102 52.8907 83.7252 53.1676C84.0244 57.6662 82.7377 62.4843 81.4209 67.1959C81.4808 67.1426 81.5107 67.0628 81.5705 67.0362C81.8099 66.8498 81.9595 66.5836 82.1989 66.3707C82.5581 66.1311 83.0369 66.3707 82.977 66.7167C83.5756 66.8498 84.1741 67.1427 84.7726 67.3822C85.1018 66.8232 85.5207 66.2908 86.0893 65.8649C89.9797 62.9368 96.0545 67.5951 98.7478 69.9909C99.0471 69.8578 99.4062 69.7779 99.8252 69.8578C101.022 70.0974 102.249 69.8578 103.476 69.5649C101.082 68.3138 98.7778 66.8232 98.5384 64.1612C98.299 61.3396 102.698 59.3698 105.541 58.2784C104.434 55.164 103.626 51.4905 103.865 48.03C103.476 50.5056 103.865 53.061 102.698 55.51C102.459 56.0424 101.681 56.3352 101.082 56.3352C98.3288 56.3352 93.6306 56.3353 92.8226 53.2474C92.1942 50.9582 93.2715 48.5624 92.8226 46.1933C92.5563 45.4213 92.9153 44.4364 93.9029 44.2767Z" fill="#99B815"/>
<path d="M100.905 118.172C100.277 120.488 100.217 122.99 100.756 125.333C100.127 124.428 99.4089 123.576 98.6308 122.884C97.8527 122.139 96.7156 122.644 96.5061 123.443C92.6457 125.253 88.486 129.113 87.3189 132.653C85.4635 133.052 83.5783 133.345 81.663 133.399C80.855 133.425 80.2864 133.239 79.8375 132.946C80.3762 132.041 80.7952 131.109 81.0944 130.151C81.5433 128.74 80.2565 127.915 78.9996 128.048C79.0595 127.702 79.1193 127.409 79.1792 127.116C79.3288 126.265 78.9398 125.439 77.9523 125.2C75.0196 124.454 68.5556 122.405 70.381 118.678C71.3087 116.735 73.4334 115.484 75.5282 114.313C75.8873 115.777 76.456 117.161 77.3837 118.625C77.6829 119.131 78.4609 119.61 79.1792 119.556C81.2141 119.317 82.7403 118.625 84.3264 117.533C85.7329 116.549 88.0371 115.244 88.8152 113.807C88.8751 113.7 88.8751 113.567 88.905 113.434C89.4736 113.913 90.0721 114.339 90.7005 114.765C93.9924 116.895 97.4637 117.959 100.905 118.172Z" fill="#99B815"/>
<path d="M139.868 72.2801C139.988 72.7858 139.809 73.3714 139.42 73.7707C138.462 74.7823 139.839 77.4708 139.898 78.6953C139.958 79.5205 139.09 80.2125 138.193 80.2125C135.38 80.2125 132.567 80.2125 129.754 80.1327C128.916 80.1061 128.078 79.4939 128.138 78.6953C128.227 77.5507 128.587 76.4326 128.826 75.3146C128.946 74.6225 129.305 73.3714 129.035 72.5196C128.886 72.4131 128.736 72.3599 128.587 72.2268C127.868 71.6411 127.958 70.9491 128.377 70.47C127.15 71.6412 125.654 72.7858 124.337 74.3297C124.517 74.4628 124.696 74.5693 124.816 74.7556C127.719 79.201 125.145 81.5702 125.295 86.1753C125.295 86.4415 125.235 86.6544 125.145 86.8673C127.33 90.7005 127.659 94.9064 126.701 98.9792C126.821 98.8993 126.941 98.846 127.03 98.7662C128.257 97.8345 129.873 98.9525 129.484 100.071C130.352 101.029 129.873 102.945 128.078 102.866C127.3 102.839 126.252 102.892 125.384 102.706C121.734 110.825 112.965 117.559 103.539 118.172C103 121.552 103.299 125.598 106.172 128.021C109.165 130.55 112.816 130.922 115.898 128.021C117.574 126.477 118.442 123.735 120.447 122.431C122.631 120.993 122.571 120.674 121.464 118.065C121.135 117.24 122.033 116.175 123.02 116.255C127.659 116.681 129.065 115.137 131.699 112.235C132.24 111.615 132.713 111.237 133.279 110.984C133.467 110.625 136.316 110.513 136.517 110.159C135.838 110.098 132.498 109.832 131.878 110.026C130.203 110.532 129.155 108.243 130.681 107.497C132.447 106.645 134.272 106.858 136.188 106.885C138.522 106.938 139.18 105.102 139.599 103.318C139.479 103.238 139.36 103.158 139.24 103.079C137.923 103.638 136.038 102.626 135.978 101.162C135.35 100.896 134.721 100.603 134.093 100.337C133.225 102.573 132.776 104.968 131.011 106.805C129.544 108.349 127.03 106.113 128.527 104.569C130.262 102.759 130.502 99.5648 131.609 97.382C132.028 96.5568 133.225 96.4769 134.033 96.823C135.23 97.3288 136.397 97.7813 137.534 98.287C139.3 95.9978 141.245 93.3625 138.282 90.6207C137.205 89.6091 137.534 88.1983 138.731 87.453C145.914 82.9543 146.332 77.4442 140.078 72.5196C139.988 72.4398 139.928 72.3599 139.868 72.2801Z" fill="#99B815"/>
<path d="M94.3514 24.4723C93.7828 24.4723 93.334 24.3392 92.915 24.1528C57.0941 29.663 30.9989 52.9549 28.2457 86.6016C25.5823 119.024 47.2485 148.864 86.87 147.427C163.24 144.685 180.028 25.6968 94.3514 24.4723ZM141.215 100.284C141.544 100.523 141.903 100.736 142.232 101.029C144.357 102.839 142.861 106.14 141.335 108.03C140.332 109.308 138.755 110.005 137.046 110.114C136.594 110.953 136.074 111.762 135.682 112.625C135.58 112.851 135.424 113.016 135.251 113.154C132.752 116.689 129.795 119.066 125.384 119.213C125.893 120.464 126.252 121.848 125.534 122.806C124.756 123.871 123.499 124.058 122.631 124.936C119.369 128.37 118.591 133.081 112.427 133.694C108.057 134.12 104.975 132.549 103 130.073C104.466 135.371 102.611 140.668 93.9923 139.577C89.9524 139.044 87.9174 137.66 87.2291 135.93C84.2066 137.447 80.7054 138.485 77.653 137.048C77.3836 136.941 77.204 136.782 76.9646 136.622C73.3137 140.136 68.0169 142.159 62.75 140.295C56.0766 137.979 54.3708 131.511 54.8795 125.735C52.0366 125.921 48.5652 125.708 47.6974 123.099C46.8295 120.491 48.0864 117.589 48.7448 114.9C46.8296 115.034 44.9143 114.741 43.2684 113.729C40.7247 112.212 39.2284 109.497 40.186 106.782C40.4554 105.983 40.8744 105.318 41.3831 104.705C38.1512 103.348 35.5476 100.925 35.5476 97.4916C35.5476 95.3354 36.1461 93.126 37.5227 91.2892C38.1631 90.4614 39.1806 89.6654 40.1442 88.8535C39.6205 88.4383 39.1147 88.0044 38.6149 87.5678C38.3845 87.5572 38.1482 87.512 37.9117 87.3762C36.0564 86.3381 30.7295 85.8057 31.6872 82.7178C32.555 79.9228 35.2184 77.7933 38.0015 76.3824C37.1636 74.2795 36.8344 71.9105 38.7795 70.2068C39.3481 69.7011 40.1262 69.355 40.9641 69.0888C40.7247 68.6363 40.4853 68.1305 40.3656 67.5715C39.1087 61.2893 48.3259 56.8971 51.1089 52.0791C51.9768 50.5618 53.1438 49.2309 55.1488 48.8848C59.2486 48.1661 58.9195 46.8617 60.9544 43.8005C64.8447 37.9177 73.194 38.9825 79.4186 40.3401C79.8674 40.4465 80.0769 40.7393 80.1068 41.0854C81.6929 40.8991 83.0994 40.8724 83.2191 40.686C84.1468 39.1155 83.4885 36.6932 85.2241 35.6018C87.0795 34.404 90.4013 34.6968 92.8851 34.8299C93.723 32.2212 93.9325 30.1714 96.1769 27.8023C96.6258 27.3232 97.6433 27.0836 98.3016 27.3232C104.436 29.4261 108.895 32.5938 112.516 37.4918C112.636 37.6515 112.696 37.8112 112.726 37.9443C114.192 38.3435 115.569 39.3817 116.766 40.6328C117.065 40.1803 117.604 39.8343 118.352 39.9141C121.434 40.2868 128.676 38.6896 131.01 41.3515C132.417 42.9487 132.656 44.3861 133.135 46.3559C133.644 48.4056 138.342 50.7481 139.838 52.4251C143.31 56.2849 142.681 59.4526 140.227 61.7685C141.574 62.7534 142.861 63.8448 143.34 65.3088C143.968 67.2254 143.579 69.9406 145.165 71.4845C146.123 72.4162 147.828 73.9068 148.397 75.1313C151.479 81.4401 148.128 85.7259 142.921 89.5856C145.973 94.1349 143.669 96.078 141.215 100.284Z" fill="#F6F6F6"/>
<path d="M58.6804 75.4747C57.7826 76.2466 56.0769 76.1668 55.4783 75.102C55.0295 74.3035 54.7002 73.5048 54.401 72.7329C51.2289 73.2653 47.2488 73.2387 44.2862 71.9875C43.7774 72.094 43.2387 72.2005 42.7 72.3336C40.2162 72.9725 41.6527 75.0754 42.2213 76.7258C42.4607 77.4711 42.0716 78.2697 41.3235 78.6424C39.109 79.8136 37.4631 81.0914 36.1165 83.008C36.2062 83.0612 36.3259 83.141 36.4755 83.2475C37.0441 83.4338 37.5529 83.6734 38.0616 83.9396C38.3639 84.126 38.6093 84.291 38.8517 84.464C39.124 84.4986 39.5549 87.1419 39.8093 87.3389C40.6622 88.0017 40.1893 87.7462 41.0272 88.4223C41.1828 88.1934 42.3979 86.3833 42.4906 86.149C45.1839 79.0949 51.7975 77.9237 57.8125 80.4259C58.83 78.0568 60.3862 75.874 61.8525 73.6114H61.8226C60.6555 74.1171 59.6081 74.6761 58.6804 75.4747Z" fill="#99B815"/>
<path d="M83.9375 70.2042C83.7281 72.8129 84.6857 75.7942 85.4039 78.0835C82.3814 80.3994 78.7903 83.8599 79.6282 87.5866C80.3764 90.9672 83.4288 92.3514 86.8104 92.937C85.1645 94.1082 84.0273 95.4126 83.2193 96.7436C79.2392 96.7436 75.7678 96.6638 71.6979 95.0134C70.2016 94.4011 68.9149 93.8687 68.4959 92.8306C68.5558 92.7241 68.6156 92.6176 68.6755 92.5112C68.855 92.0586 68.7053 91.6859 68.436 91.4463C68.4659 91.3398 68.466 91.26 68.4959 91.1536C69.0346 89.3967 69.4834 88.0125 69.633 86.1758C69.7228 85.1376 68.5258 84.0995 67.3587 84.1793C65.8325 84.2592 64.2465 84.2591 63.1691 83.8066C62.81 83.5138 62.4808 83.2476 62.1217 82.9548C61.7926 82.4224 61.7027 81.6771 62.0918 80.5857C63.0494 77.977 64.5756 75.6878 65.2938 72.9992C65.3238 72.8927 65.2938 72.8129 65.2938 72.7064C65.6829 72.6 66.0419 72.4402 66.3711 72.2539C66.5806 72.1474 66.7602 71.9611 66.8799 71.8014C69.5433 73.9576 73.1642 75.4216 76.9349 75.954C77.9823 76.1137 79.2691 75.741 79.4786 74.6762C79.9274 72.5733 80.5559 70.3639 81.1843 68.1279C81.2143 68.4207 81.334 68.7135 81.5734 68.8998C82.2318 69.4322 83.0398 69.8582 83.9375 70.2042Z" fill="#99B815"/>
<path d="M83.9376 107.897C83.0099 108.004 82.0223 107.844 81.1844 107.791C79.8676 107.684 78.7604 107.924 77.4736 108.03C76.1868 108.164 75.0497 108.935 75.0497 110.187C75.0796 110.479 75.1095 110.719 75.1095 111.012C74.511 111.198 73.8825 111.438 73.284 111.704C71.8176 111.251 70.3513 110.852 68.9448 110.266C65.7128 108.962 67.8375 105.608 68.9149 103.505C69.3338 102.68 69.1543 101.802 68.2565 101.322C65.7128 99.885 63.7377 98.6605 66.042 96.2381C66.0719 96.1849 66.1019 96.1582 66.1617 96.105C71.0097 98.554 76.486 100.897 81.9923 100.497C81.7529 102.973 82.5011 105.528 83.9376 107.897Z" fill="#99B815"/>
<path d="M79.269 57.1338C78.0121 60.4612 77.3239 64.1613 76.6655 67.7016C74.9597 66.2908 73.3438 64.7735 73.1343 62.6173C72.8949 59.7425 76.9947 58.4115 79.269 57.1338Z" fill="#FF4121"/>
<path d="M76.3365 41.9878C76.0073 42.1741 75.708 42.3871 75.5285 42.6533C73.9424 44.8627 74.092 47.5778 73.9424 50.1066C69.3039 51.757 65.5333 54.9514 63.5582 59.5565C62.6904 61.6062 62.481 63.4962 62.7802 65.2264C60.5657 65.1466 58.2614 65.1465 56.1666 64.7472C54.7601 64.4544 53.2339 65.3062 53.2937 66.6904C53.3237 67.7818 53.4434 68.82 53.623 69.8315C52.0668 69.8049 50.2413 69.7783 48.6852 69.4589C48.5655 68.7934 48.0268 68.1811 47.1291 68.2343C46.8298 68.2609 46.4708 68.2876 46.1416 68.3142C45.7825 67.9947 45.4832 67.6754 45.2737 67.2229C44.0468 64.4545 50.361 60.5414 52.2463 59.2371C53.8324 58.1457 54.7901 55.2708 55.7477 53.647C56.406 52.5556 60.027 52.3959 61.224 52.1297C61.9123 51.97 62.6904 51.3844 62.8101 50.7189C64.0969 43.7447 69.693 42.041 76.3365 41.9878Z" fill="#99B815"/>
<path d="M75.2589 127.755C74.7203 129.299 74.3313 131.002 74.4809 132.546C72.1168 135.368 69.3038 137.737 64.8449 136.672C59.2189 135.341 58.5605 128.234 59.2488 124.188C59.3984 123.15 58.7101 121.686 57.2437 121.845C54.8497 122.111 51.3484 123.016 51.498 120.115C51.5878 118.145 51.8871 116.202 51.917 114.232C52.0965 114.179 52.306 114.126 52.4856 114.046C56.735 112.449 59.3086 108.323 60.5954 104.596C60.745 104.117 60.5954 103.451 60.1465 103.105C58.6203 101.987 57.0642 101.136 55.0591 101.082C53.922 101.029 52.7848 101.295 51.6775 101.588C51.9768 100.816 51.2586 99.8311 50.1514 100.097C47.9369 100.63 45.5728 101.428 43.6874 102.653C40.7847 100.869 38.7497 98.6865 39.6175 95.3059C40.4854 91.9252 44.256 90.3014 45.7523 87.3733C47.099 84.738 48.9244 82.289 52.3958 82.0761C54.0118 81.9962 55.508 82.4754 56.9145 83.1143C56.8247 83.62 56.735 84.1524 56.6752 84.6848C56.6153 85.297 57.124 86.1755 57.7824 86.415C60.1764 87.3201 62.361 87.746 64.7252 87.9856C64.2463 89.8755 63.558 91.6591 63.558 93.6821C63.558 93.7087 63.558 93.7087 63.558 93.7087C62.4208 94.8799 61.4333 96.2109 61.0443 97.5685C60.3261 100.044 62.8698 101.907 65.0843 103.238C63.7077 105.847 62.3909 109.148 64.6054 111.49C65.8922 112.875 67.7177 113.487 69.6329 113.833C67.5381 115.43 65.9821 117.48 65.9821 119.742C66.012 124.56 70.7402 126.53 75.2589 127.755Z" fill="#99B815"/>
<path d="M50.5105 107.977C51.6476 108.003 51.4382 109.521 50.2711 109.361C48.8347 109.201 48.3259 107.844 46.9793 107.684C46.3209 107.604 46.5004 106.672 47.1289 106.672C47.7872 106.699 48.3259 106.832 48.8346 107.178C49.4032 107.551 49.7324 107.977 50.5105 107.977Z" fill="#1D1D1B"/>
<path d="M100.124 54.1478L102.865 46.5613L95.402 45.8826L95.0967 52.7929L100.124 54.1478Z" fill="#EC7724"/>
<path d="M131.499 72.4373L129.521 77.857L136.984 78.9403L138.355 72.573L131.499 72.4373Z" fill="#EC7724"/>
<path d="M106.217 86.7984L102.255 78.5332L94.4893 81.6503L97.6854 88.2892L106.217 86.7984Z" fill="#EC7724"/>
<path d="M67.5292 69.8632L61.2837 72.1658L56.714 72.9777L56.2592 66.6104L65.3955 66.3389L67.5292 69.8632Z" fill="#EC7724"/>
<path d="M86.8733 108.611L77.1235 110.101L80.17 118.095L91.1377 111.728L86.8733 108.611Z" fill="#EC7724"/>
<path d="M97.3832 124.055C97.3832 124.055 89.9198 130.83 89.7672 132.725C89.6146 134.62 89.1566 137.466 94.4894 137.738C99.8191 138.009 104.084 134.08 101.953 130.287C99.8192 126.494 97.3832 124.055 97.3832 124.055Z" fill="#EC7724"/>
<path d="M58.8478 103.869L49.2507 102.107C49.2507 102.107 41.3294 105.764 42.2451 108.746C43.1578 111.727 46.6621 114.437 50.319 113.082C53.9729 111.727 59.7606 106.984 58.8478 103.869Z" fill="#EC7724"/>
</svg>
